<svg width="502" height="518" viewBox="0 0 502 518" fill="none" xmlns="http://www.w3.org/2000/svg">
<path d="M178.5 387L188 384H194.5H204L207.5 387V398L197.5 406.5H178.5L173 398V389L178.5 387Z" fill="black" fill-opacity="0.1"/>
<path d="M194.5 384H190V371L194.5 369V384Z" fill="#A52A2A"/>
<path d="M200.5 369H196H187.5L179 358.5V346.5L184 341.5L179 338V329.5L184 322V312L194 292H200.5V296L207 305L209 312V326L211.5 329.5V358.5L200.5 369Z" fill="#006400"/>
<path d="M338.5 86L348 83H354.5H364L367.5 86V97L357.5 105.5H338.5L333 97V88L338.5 86Z" fill="black" fill-opacity="0.1"/>
<path d="M354.5 83H350V70L354.5 68V83Z" fill="#A52A2A"/>
<path d="M360.5 68H356H347.5L339 57.5V45.5L344 40.5L339 37V28.5L344 21V11L354 -9H360.5V-5L367 4L369 11V25L371.5 28.5V57.5L360.5 68Z" fill="#006400"/>
<path d="M403.5 106L413 103H419.5H429L432.5 106V117L422.5 125.5H403.5L398 117V108L403.5 106Z" fill="black" fill-opacity="0.1"/>
<path d="M419.5 103H415V90L419.5 88V103Z" fill="#A52A2A"/>
<path d="M425.5 88H421H412.5L404 77.5V65.5L409 60.5L404 57V48.5L409 41V31L419 11H425.5V15L432 24L434 31V45L436.5 48.5V77.5L425.5 88Z" fill="#006400"/>
<path d="M468.5 106L478 103H484.5H494L497.5 106V117L487.5 125.5H468.5L463 117V108L468.5 106Z" fill="black" fill-opacity="0.1"/>
<path d="M484.5 103H480V90L484.5 88V103Z" fill="#A52A2A"/>
<path d="M490.5 88H486H477.5L469 77.5V65.5L474 60.5L469 57V48.5L474 41V31L484 11H490.5V15L497 24L499 31V45L501.5 48.5V77.5L490.5 88Z" fill="#006400"/>
<path d="M429.5 163L439 160H445.5H455L458.5 163V174L448.5 182.5H429.5L424 174V165L429.5 163Z" fill="black" fill-opacity="0.1"/>
<path d="M445.5 160H441V147L445.5 145V160Z" fill="#A52A2A"/>
<path d="M451.5 145H447H438.5L430 134.5V122.5L435 117.5L430 114V105.5L435 98V88L445 68H451.5V72L458 81L460 88V102L462.5 105.5V134.5L451.5 145Z" fill="#006400"/>
<path d="M364.5 163L374 160H380.5H390L393.5 163V174L383.5 182.5H364.5L359 174V165L364.5 163Z" fill="black" fill-opacity="0.1"/>
<path d="M380.5 160H376V147L380.5 145V160Z" fill="#A52A2A"/>
<path d="M386.5 145H382H373.5L365 134.5V122.5L370 117.5L365 114V105.5L370 98V88L380 68H386.5V72L393 81L395 88V102L397.5 105.5V134.5L386.5 145Z" fill="#006400"/>
<path d="M233.5 259L243 256H249.5H259L262.5 259V270L252.5 278.5H233.5L228 270V261L233.5 259Z" fill="black" fill-opacity="0.1"/>
<path d="M249.5 256H245V243L249.5 241V256Z" fill="#A52A2A"/>
<path d="M255.5 241H251H242.5L234 230.5V218.5L239 213.5L234 210V201.5L239 194V184L249 164H255.5V168L262 177L264 184V198L266.5 201.5V230.5L255.5 241Z" fill="#006400"/>
<path d="M305.5 170L315 167H321.5H331L334.5 170V181L324.5 189.5H305.5L300 181V172L305.5 170Z" fill="black" fill-opacity="0.1"/>
<path d="M321.5 167H317V154L321.5 152V167Z" fill="#A52A2A"/>
<path d="M327.5 152H323H314.5L306 141.5V129.5L311 124.5L306 121V112.5L311 105V95L321 75H327.5V79L334 88L336 95V109L338.5 112.5V141.5L327.5 152Z" fill="#006400"/>
<path d="M30.5 100L40 97H46.5H56L59.5 100V111L49.5 119.5H30.5L25 111V102L30.5 100Z" fill="black" fill-opacity="0.1"/>
<path d="M46.5 97H42V84L46.5 82V97Z" fill="#A52A2A"/>
<path d="M52.5 82H48H39.5L31 71.5V59.5L36 54.5L31 51V42.5L36 35V25L46 5H52.5V9L59 18L61 25V39L63.5 42.5V71.5L52.5 82Z" fill="#006400"/>
<path d="M11.5 173L21 170H27.5H37L40.5 173V184L30.5 192.5H11.5L6 184V175L11.5 173Z" fill="black" fill-opacity="0.1"/>
<path d="M27.5 170H23V157L27.5 155V170Z" fill="#A52A2A"/>
<path d="M33.5 155H29H20.5L12 144.5V132.5L17 127.5L12 124V115.5L17 108V98L27 78H33.5V82L40 91L42 98V112L44.5 115.5V144.5L33.5 155Z" fill="#006400"/>
<path d="M93.5 113L103 110H109.5H119L122.5 113V124L112.5 132.5H93.5L88 124V115L93.5 113Z" fill="black" fill-opacity="0.1"/>
<path d="M109.5 110H105V97L109.5 95V110Z" fill="#A52A2A"/>
<path d="M115.5 95H111H102.5L94 84.5V72.5L99 67.5L94 64V55.5L99 48V38L109 18H115.5V22L122 31L124 38V52L126.5 55.5V84.5L115.5 95Z" fill="#006400"/>
<path d="M60.5 173L70 170H76.5H86L89.5 173V184L79.5 192.5H60.5L55 184V175L60.5 173Z" fill="black" fill-opacity="0.1"/>
<path d="M76.5 170H72V157L76.5 155V170Z" fill="#A52A2A"/>
<path d="M82.5 155H78H69.5L61 144.5V132.5L66 127.5L61 124V115.5L66 108V98L76 78H82.5V82L89 91L91 98V112L93.5 115.5V144.5L82.5 155Z" fill="#006400"/>
<path d="M156.5 115L166 112H172.5H182L185.5 115V126L175.5 134.5H156.5L151 126V117L156.5 115Z" fill="black" fill-opacity="0.1"/>
<path d="M172.5 112H168V99L172.5 97V112Z" fill="#A52A2A"/>
<path d="M178.5 97H174H165.5L157 86.5V74.5L162 69.5L157 66V57.5L162 50V40L172 20H178.5V24L185 33L187 40V54L189.5 57.5V86.5L178.5 97Z" fill="#006400"/>
<path d="M156.5 161L166 158H172.5H182L185.5 161V172L175.5 180.5H156.5L151 172V163L156.5 161Z" fill="black" fill-opacity="0.1"/>
<path d="M172.5 158H168V145L172.5 143V158Z" fill="#A52A2A"/>
<path d="M178.5 143H174H165.5L157 132.5V120.5L162 115.5L157 112V103.5L162 96V86L172 66H178.5V70L185 79L187 86V100L189.5 103.5V132.5L178.5 143Z" fill="#006400"/>
<path d="M219.5 100L229 97H235.5H245L248.5 100V111L238.5 119.5H219.5L214 111V102L219.5 100Z" fill="black" fill-opacity="0.1"/>
<path d="M235.5 97H231V84L235.5 82V97Z" fill="#A52A2A"/>
<path d="M241.5 82H237H228.5L220 71.5V59.5L225 54.5L220 51V42.5L225 35V25L235 5H241.5V9L248 18L250 25V39L252.5 42.5V71.5L241.5 82Z" fill="#006400"/>
<path d="M283.5 100L293 97H299.5H309L312.5 100V111L302.5 119.5H283.5L278 111V102L283.5 100Z" fill="black" fill-opacity="0.1"/>
<path d="M299.5 97H295V84L299.5 82V97Z" fill="#A52A2A"/>
<path d="M305.5 82H301H292.5L284 71.5V59.5L289 54.5L284 51V42.5L289 35V25L299 5H305.5V9L312 18L314 25V39L316.5 42.5V71.5L305.5 82Z" fill="#006400"/>
<path d="M244.5 188L254 185H260.5H270L273.5 188V199L263.5 207.5H244.5L239 199V190L244.5 188Z" fill="black" fill-opacity="0.1"/>
<path d="M260.5 185H256V172L260.5 170V185Z" fill="#A52A2A"/>
<path d="M266.5 170H262H253.5L245 159.5V147.5L250 142.5L245 139V130.5L250 123V113L260 93H266.5V97L273 106L275 113V127L277.5 130.5V159.5L266.5 170Z" fill="#006400"/>
<path d="M115.5 185L125 182H131.5H141L144.5 185V196L134.5 204.5H115.5L110 196V187L115.5 185Z" fill="black" fill-opacity="0.1"/>
<path d="M131.5 182H127V169L131.5 167V182Z" fill="#A52A2A"/>
<path d="M137.5 167H133H124.5L116 156.5V144.5L121 139.5L116 136V127.5L121 120V110L131 90H137.5V94L144 103L146 110V124L148.5 127.5V156.5L137.5 167Z" fill="#006400"/>
<path d="M5.5 284L15 281H21.5H31L34.5 284V295L24.5 303.5H5.5L0 295V286L5.5 284Z" fill="black" fill-opacity="0.1"/>
<path d="M21.5 281H17V268L21.5 266V281Z" fill="#A52A2A"/>
<path d="M27.5 266H23H14.5L6 255.5V243.5L11 238.5L6 235V226.5L11 219V209L21 189H27.5V193L34 202L36 209V223L38.5 226.5V255.5L27.5 266Z" fill="#006400"/>
<path d="M14.5 406L24 403H30.5H40L43.5 406V417L33.5 425.5H14.5L9 417V408L14.5 406Z" fill="black" fill-opacity="0.1"/>
<path d="M30.5 403H26V390L30.5 388V403Z" fill="#A52A2A"/>
<path d="M36.5 388H32H23.5L15 377.5V365.5L20 360.5L15 357V348.5L20 341V331L30 311H36.5V315L43 324L45 331V345L47.5 348.5V377.5L36.5 388Z" fill="#006400"/>
<path d="M49.5 279L59 276H65.5H75L78.5 279V290L68.5 298.5H49.5L44 290V281L49.5 279Z" fill="black" fill-opacity="0.1"/>
<path d="M65.5 276H61V263L65.5 261V276Z" fill="#A52A2A"/>
<path d="M71.5 261H67H58.5L50 250.5V238.5L55 233.5L50 230V221.5L55 214V204L65 184H71.5V188L78 197L80 204V218L82.5 221.5V250.5L71.5 261Z" fill="#006400"/>
<path d="M112.5 296L122 293H128.5H138L141.5 296V307L131.5 315.5H112.5L107 307V298L112.5 296Z" fill="black" fill-opacity="0.1"/>
<path d="M128.5 293H124V280L128.5 278V293Z" fill="#A52A2A"/>
<path d="M134.5 278H130H121.5L113 267.5V255.5L118 250.5L113 247V238.5L118 231V221L128 201H134.5V205L141 214L143 221V235L145.5 238.5V267.5L134.5 278Z" fill="#006400"/>
<path d="M129.5 406L139 403H145.5H155L158.5 406V417L148.5 425.5H129.5L124 417V408L129.5 406Z" fill="black" fill-opacity="0.1"/>
<path d="M145.5 403H141V390L145.5 388V403Z" fill="#A52A2A"/>
<path d="M151.5 388H147H138.5L130 377.5V365.5L135 360.5L130 357V348.5L135 341V331L145 311H151.5V315L158 324L160 331V345L162.5 348.5V377.5L151.5 388Z" fill="#006400"/>
<path d="M175.5 296L185 293H191.5H201L204.5 296V307L194.5 315.5H175.5L170 307V298L175.5 296Z" fill="black" fill-opacity="0.1"/>
<path d="M191.5 293H187V280L191.5 278V293Z" fill="#A52A2A"/>
<path d="M197.5 278H193H184.5L176 267.5V255.5L181 250.5L176 247V238.5L181 231V221L191 201H197.5V205L204 214L206 221V235L208.5 238.5V267.5L197.5 278Z" fill="#006400"/>
<path d="M54.5 387L64 384H70.5H80L83.5 387V398L73.5 406.5H54.5L49 398V389L54.5 387Z" fill="black" fill-opacity="0.1"/>
<path d="M70.5 384H66V371L70.5 369V384Z" fill="#A52A2A"/>
<path d="M76.5 369H72H63.5L55 358.5V346.5L60 341.5L55 338V329.5L60 322V312L70 292H76.5V296L83 305L85 312V326L87.5 329.5V358.5L76.5 369Z" fill="#006400"/>
<path d="M73.5 457L83 454H89.5H99L102.5 457V468L92.5 476.5H73.5L68 468V459L73.5 457Z" fill="black" fill-opacity="0.1"/>
<path d="M85.5 477H81V464L85.5 462V477Z" fill="#A52A2A"/>
<path d="M91.5 462H87H78.5L70 451.5V439.5L75 434.5L70 431V422.5L75 415V405L85 385H91.5V389L98 398L100 405V419L102.5 422.5V451.5L91.5 462Z" fill="#006400"/>
<path d="M20.5 475L30 472H36.5H46L49.5 475V486L39.5 494.5H20.5L15 486V477L20.5 475Z" fill="black" fill-opacity="0.1"/>
<path d="M23.5 495H19V482L23.5 480V495Z" fill="#A52A2A"/>
<path d="M29.5 480H25H16.5L8 469.5V457.5L13 452.5L8 449V440.5L13 433V423L23 403H29.5V407L36 416L38 423V437L40.5 440.5V469.5L29.5 480Z" fill="#006400"/>
<path d="M175.5 231L185 228H191.5H201L204.5 231V242L194.5 250.5H175.5L170 242V233L175.5 231Z" fill="black" fill-opacity="0.1"/>
<path d="M191.5 228H187V215L191.5 213V228Z" fill="#A52A2A"/>
<path d="M197.5 213H193H184.5L176 202.5V190.5L181 185.5L176 182V173.5L181 166V156L191 136H197.5V140L204 149L206 156V170L208.5 173.5V202.5L197.5 213Z" fill="#006400"/>
</svg>
