<svg width="150" height="200" viewBox="0 0 150 200" fill="none" xmlns="http://www.w3.org/2000/svg">
<g clip-path="url(#clip0_72_7)">
<g filter="url(#filter0_f_72_7)">
<path d="M60.2933 78.7106L12.16 0H0V6.97436L53.2 80.2051L60.2933 78.7106Z" fill="white" fill-opacity="0.701961"/>
<path d="M64.8533 78.7106L43.5733 51.3114L12.6667 0H44.5867L67.0252 76.7179L45.0933 0H63.6584L73.9733 91.1648L71.44 92.1612L67.0252 76.7179L65.8667 78.2125L64.8533 78.7106Z" fill="white" fill-opacity="0.701961"/>
<path d="M67.8933 34.3736L76.5067 71.2381L79.5467 31.8828L67.8933 32.8791V34.3736Z" fill="white" fill-opacity="0.701961"/>
<path d="M80.0533 31.8828L77.0133 75.7216L86.1333 74.2271L100.827 31.3846L80.0533 31.8828Z" fill="white" fill-opacity="0.701961"/>
<path d="M67.8933 32.381L64.8533 0H83.0933L79.5467 31.3846L67.8933 32.381Z" fill="white" fill-opacity="0.701961"/>
<path d="M80.0533 31.3846L83.6 0H112.883L101.333 30.8864L80.0533 31.3846Z" fill="white" fill-opacity="0.701961"/>
<path d="M101.333 31.8828L113.493 0H146.427V1.49451L120.587 38.359L101.333 31.8828Z" fill="white" fill-opacity="0.701961"/>
<path d="M125.147 60.7766L113.493 49.3187L146.427 1.99267L150.987 1.49451V40.1952L152 39.3553L150.987 60.2784L94.24 92.1612L90.6933 90.1685L146.912 43.5722L125.147 60.7766Z" fill="white" fill-opacity="0.701961"/>
<path d="M124.64 61.2747L112.48 49.3187L86.64 86.1832L90.1867 90.1685L124.64 61.2747Z" fill="white" fill-opacity="0.701961"/>
<path d="M79.04 99.6337L84.1067 95.1502L80.56 94.1538L77.0133 99.6337H79.04Z" fill="white" fill-opacity="0.701961"/>
<path d="M89.68 90.6667L86.1333 86.6813L81.0667 93.6557L84.6133 94.652L89.68 90.6667Z" fill="white" fill-opacity="0.701961"/>
<path d="M87.6533 96.1465L93.7333 92.6593L90.1867 90.6667L85.12 95.1502L87.6533 96.1465Z" fill="white" fill-opacity="0.701961"/>
<path d="M150.987 75.2234L145.92 63.7656L150.987 60.7766V75.2234Z" fill="white" fill-opacity="0.701961"/>
<path d="M104.373 87.6777L145.413 63.7656L150.987 75.7216V97.641L131.293 99.2217L150.987 99.6337V113.084L107.413 101.128L123.196 99.5366L110.96 99.1355L104.373 87.6777Z" fill="white" fill-opacity="0.701961"/>
<path d="M91.7067 98.1392H101.84L101.333 99.1355L99.3067 99.7049L116.027 99.6337L96.7733 101.626L99.3067 99.7049L97.7867 100.132L92.2133 98.6374L91.7067 98.1392Z" fill="white" fill-opacity="0.701961"/>
<path d="M106.4 109.597L112.987 103.121L150.987 113.323V121.553L106.4 109.597Z" fill="white" fill-opacity="0.701961"/>
<path d="M103.867 114.081L106.4 110.095L150.987 122.051V136L103.867 114.081Z" fill="white" fill-opacity="0.701961"/>
<path d="M126 125.5L150 137V169.5L116.5 140.5L126 125.5Z" fill="white" fill-opacity="0.701961"/>
<path d="M150.5 202L150 170L101.5 128.5L100 141.5L150.5 202Z" fill="white" fill-opacity="0.701961"/>
<path d="M142 200L146 198L88 127.5V129L136.5 200H142Z" fill="white" fill-opacity="0.701961"/>
<path d="M129 200H135.5L90 133L129 200Z" fill="white" fill-opacity="0.701961"/>
<path d="M83 138.5L89 132L110.5 169.5L93 176L83 138.5Z" fill="white" fill-opacity="0.701961"/>
<path d="M100 200L94 177L111 170.5L128.5 200H100Z" fill="white" fill-opacity="0.701961"/>
<path d="M95.5 185.5L99 200H82V186.5L95.5 185.5Z" fill="white" fill-opacity="0.701961"/>
<path d="M95 184.5L82 185.5L77.5 141L83.5 142.5L95 184.5Z" fill="white" fill-opacity="0.701961"/>
<path d="M71.44 130L65.8667 200H81.5L76 132.5L71.44 130Z" fill="white" fill-opacity="0.701961"/>
<path d="M39 200L52 162L54 160L68.5 161.5L65 200H39Z" fill="white" fill-opacity="0.701961"/>
<path d="M54.5 159L68.5 161L72 120.5H68L54.5 159Z" fill="white" fill-opacity="0.701961"/>
<path d="M66 124.5L61.5 121.5L44.5 147L53.5 159L66 124.5Z" fill="white" fill-opacity="0.701961"/>
<path d="M38 200L52 161V160L43 148.5L7 200H38Z" fill="white" fill-opacity="0.701961"/>
<path d="M0 209L54.5 129L47.5 125.5L0 166V209Z" fill="white" fill-opacity="0.701961"/>
<path d="M0 165.5L57.5 116.5L55 114.5L0 147.668V165.5Z" fill="white" fill-opacity="0.701961"/>
<path d="M41 122L56 113.5L53 106.5L38.5 107.5L41 122Z" fill="white" fill-opacity="0.701961"/>
<path d="M38.5 123.5L36 108.5L0 111.245V146.5L38.5 123.5Z" fill="white" fill-opacity="0.701961"/>
<path d="M0 111V100H47V106.5L0 111Z" fill="white" fill-opacity="0.701961"/>
<path d="M51.5 96V100L0 99.5V84L2.53846 82.3077L1 82.5L0 83.5V73.5L6.5 75L5 82L3.60436 82.1745L51.5 96Z" fill="white" fill-opacity="0.701961"/>
<path d="M53 99.7049V96L62.5 98.6374L64 100L53 99.7049Z" fill="white" fill-opacity="0.701961"/>
<path d="M0 73V66.5L4 74L0 73Z" fill="white" fill-opacity="0.701961"/>
<path d="M5.5 74L0 66L13.5 73L9 75L5.5 74Z" fill="white" fill-opacity="0.701961"/>
<path d="M15 74L9 76L32.5 82L15 74Z" fill="white" fill-opacity="0.701961"/>
<path d="M46.5 85.5L47 83.5L0 44.5V65.5L32.5 81.5L46.5 85.5Z" fill="white" fill-opacity="0.701961"/>
<path d="M46.5 82.5V80.2051L0 24V43.5L46.5 82.5Z" fill="white" fill-opacity="0.701961"/>
<path d="M47.5 86V84L50.5 86.5L47.5 86Z" fill="white" fill-opacity="0.701961"/>
<path d="M55 87.5L57.5 88L0 7.5V23L53 87L55 87.5Z" fill="white" fill-opacity="0.701961"/>
</g>
</g>
<defs>
<filter id="filter0_f_72_7" x="-2" y="-2" width="156" height="213" filterUnits="userSpaceOnUse" color-interpolation-filters="sRGB">
<feFlood flood-opacity="0" result="BackgroundImageFix"/>
<feBlend mode="normal" in="SourceGraphic" in2="BackgroundImageFix" result="shape"/>
<feGaussianBlur stdDeviation="1" result="effect1_foregroundBlur_72_7"/>
</filter>
<clipPath id="clip0_72_7">
<rect width="150" height="200" rx="10" fill="white"/>
</clipPath>
</defs>
</svg>
