<?xml version="1.0" encoding="utf-8"?>
<!-- Generator: Adobe Illustrator 27.5.0, SVG Export Plug-In . SVG Version: 6.00 Build 0)  -->
<svg version="1.1" id="Layer_1" xmlns="http://www.w3.org/2000/svg" xmlns:xlink="http://www.w3.org/1999/xlink" x="0px" y="0px"
	 viewBox="0 0 137.058 135.143" style="enable-background:new 0 0 137.058 135.143;" xml:space="preserve">
<g>
	<g>
		<path style="fill:#417130;" d="M123.76,43.808c1.123-0.62,2.245-1.237,3.366-1.858c2.416-1.338,4.812-2.89,7.304-4.2
			c-0.933-1.634-3.318-2.241-4.961-2.791c-3.65-1.22-7.593-1.737-11.406-2.12c-7.407-0.744-14.956-0.347-22.325,0.591
			c-6.969,0.887-13.896,2.433-20.553,4.682c-0.146,0.05-0.287,0.108-0.433,0.159c4.301-3.67,8.3-7.707,11.978-11.949
			c3.378-3.895,6.627-7.881,9.655-12.055c1.577-2.175,2.986-4.456,4.527-6.653c1.061-1.512,2.249-2.819,2.963-4.541
			c0.108-0.264-0.051-0.57-0.36-0.445c-3.995,1.606-7.462,3.808-11.167,5.978c-5.023,2.941-9.793,6.309-14.212,10.098
			c-4.42,3.787-8.295,8.241-11.894,12.801c-1.602,2.027-3.015,4.25-4.438,6.467c-0.468-2.565-1.087-5.091-1.885-7.59
			c-1.173-3.674-2.75-7.229-4.469-10.674c-0.775-1.556-1.453-2.95-2.097-4.575c-0.485-1.222-0.4-2.541-0.775-3.719
			c-1.262,1.205-2.406,2.558-3.441,4.021c-0.227,0.59-0.428,1.15-0.608,1.624c-1.806,4.721-2.785,9.253-3.357,14.271
			c-0.56,4.918,0.07,10.065,1.165,14.856c0.031,0.135,0.065,0.29,0.097,0.433c-4.342-4.792-8.988-9.357-14.214-13.112
			c-3.595-2.586-7.395-4.706-11.275-6.822c-1.527-0.832-2.99-1.752-4.44-2.707c-1.597-0.586-3.198-1.161-4.818-1.679
			c-0.131-0.042-0.408-0.131-0.756-0.239c0.026,0.078,0.048,0.154,0.086,0.245c0.918,2.179,2.045,4.42,3.415,6.349
			c3.177,4.475,6.249,8.879,9.832,13.047c2.64,3.073,5.633,5.834,8.933,8.084c-4.531,0.419-9.065,1.431-13.373,2.507
			c-1.604,0.399-3.163,0.966-4.719,1.546c-2.847,1.889-6.284,2.963-9.601,4.067c1.657,0.622,3.703,0.826,5.301,1.112
			c3.325,0.591,6.848,0.485,10.212,0.51c5.188,0.038,10.224,0.006,15.229-0.83c-0.284,0.269-0.572,0.538-0.854,0.806
			c-3.652,3.465-7.531,6.732-11.287,10.09c-3.91,3.493-7.95,6.762-12.27,9.742c-1.997,1.375-4.037,2.72-6.117,3.969
			c-1.004,0.604-2.046,0.822-2.758,1.771c-0.14,0.188-0.278,0.593,0.081,0.608c3.291,0.142,6.838-1.014,10.019-1.77
			c4.196-1.001,8.638-2.513,12.595-4.218c3.639-1.568,7.059-3.622,10.453-5.651c1.084-0.647,2.192-1.271,3.296-1.902
			c-0.078,0.229-0.159,0.457-0.236,0.688c-1.746,5.245-3.067,10.261-3.285,15.83c-0.208,5.297,0.237,10.73,0.593,16.015
			c0.311,4.617,1.611,9.179,2.04,13.758c0.722-1.836,1.517-3.639,2.37-5.416c0.283-1.306,0.606-2.614,0.815-3.878
			c0.917-5.553,3.203-11.191,5.573-16.265c2.556-5.47,6.802-10.64,9.127-16.369c0.38,1.904,0.82,3.776,1.293,5.564
			c1.548,5.856,3.502,11.083,6.609,16.331c3.134,5.297,7.313,9.707,10.955,14.624c1.1,1.483,2.05,3.042,2.961,4.626
			c2.047,2.737,3.994,5.563,6.232,8.094c0.126,0.097,0.242,0.2,0.369,0.292c0.053-0.455,0.001-0.944-0.021-1.364
			c-0.111-2.148-0.549-4.35-0.803-6.485c-0.789-6.641-2.042-13.214-2.809-19.856c-0.687-5.958-1.394-12.496-3.545-18.129
			c-0.352-0.921-0.807-2.139-1.364-3.452c6.578,4.365,13.562,8.039,20.638,11.556c0.026,0.013,0.053,0.026,0.079,0.039
			c1.268,0.218,2.536,0.413,3.804,0.599c2.156,0.318,4.601,0.854,7.04,1.099c-4.496-7.089-8.146-14.65-14.325-20.534
			c-2.629-2.503-5.64-4.621-8.888-6.258c5.487,0.066,10.986-0.258,16.392-0.735c4.761-0.42,9.517-0.934,14.266-1.487
			c3.77-1.117,7.404-2.532,10.68-4.586c-1.873-0.885-4.55-1.516-4.928-1.616c-5.848-1.56-11.946-1.959-17.976-2.054
			c-2.117-0.034-4.238-0.014-6.359,0.034c3.364-1.124,6.7-2.342,10.029-3.563C112.353,47.174,118.042,45.489,123.76,43.808z"/>
		<path style="fill:#4A6626;" d="M84.82,126.605c-0.119,0-0.238-0.035-0.338-0.109c-0.076-0.055-0.149-0.115-0.222-0.175
			l-0.153-0.121c-0.031-0.025-0.059-0.049-0.085-0.079c-1.705-1.929-3.262-4.051-4.768-6.106c-0.496-0.676-0.992-1.353-1.494-2.023
			c-0.831-1.436-1.799-3.056-2.963-4.628c-1.266-1.709-2.621-3.388-3.933-5.01c-2.456-3.038-4.995-6.182-7.054-9.662
			c-2.894-4.89-4.951-9.971-6.67-16.479c-0.338-1.282-0.651-2.57-0.933-3.85c-1.22,2.584-2.767,5.068-4.271,7.483
			c-1.476,2.37-3.002,4.822-4.145,7.268c-2.063,4.418-4.556,10.242-5.527,16.115c-0.153,0.932-0.371,1.895-0.581,2.826l-0.24,1.08
			c-0.009,0.044-0.024,0.085-0.044,0.127c-0.893,1.864-1.663,3.622-2.352,5.377c-0.097,0.246-0.349,0.394-0.613,0.355
			c-0.262-0.035-0.464-0.248-0.489-0.511c-0.197-2.112-0.592-4.271-0.974-6.356c-0.442-2.419-0.899-4.922-1.067-7.415l-0.119-1.745
			c-0.325-4.712-0.661-9.584-0.475-14.332c0.223-5.697,1.582-10.696,3.071-15.257c-0.666,0.381-1.328,0.764-1.982,1.154
			l-0.146,0.089c-3.32,1.983-6.752,4.035-10.374,5.597c-4.105,1.768-8.611,3.277-12.689,4.247c-0.627,0.149-1.27,0.314-1.921,0.481
			c-2.712,0.697-5.537,1.417-8.254,1.303c-0.319-0.013-0.574-0.172-0.699-0.438c-0.18-0.379-0.012-0.82,0.185-1.083
			c0.574-0.766,1.314-1.118,2.03-1.457c0.293-0.141,0.595-0.282,0.892-0.461c1.859-1.117,3.85-2.409,6.086-3.951
			c4.016-2.769,8.01-5.939,12.214-9.696c1.246-1.114,2.505-2.219,3.766-3.323c2.335-2.046,4.745-4.156,7.039-6.312
			c-3.837,0.5-7.613,0.576-11.159,0.576c-0.782,0-1.568-0.004-2.358-0.01l-1.617-0.006c-2.875-0.002-5.848-0.006-8.691-0.512
			c-0.38-0.068-0.786-0.131-1.205-0.197c-1.352-0.21-2.883-0.448-4.197-0.943c-0.227-0.083-0.375-0.303-0.371-0.545
			c0.005-0.243,0.162-0.455,0.392-0.533l0.637-0.21c3.062-1.016,6.227-2.064,8.829-3.791c0.037-0.024,0.076-0.043,0.117-0.059
			c1.672-0.621,3.185-1.167,4.78-1.566c3.583-0.895,7.744-1.852,11.946-2.357c-2.764-2.038-5.384-4.489-7.802-7.303
			c-3.323-3.867-6.142-7.844-9.128-12.052l-0.736-1.038c-1.232-1.733-2.401-3.908-3.476-6.458c-0.038-0.091-0.065-0.173-0.09-0.25
			c-0.066-0.203-0.019-0.447,0.132-0.599c0.149-0.152,0.367-0.227,0.57-0.163l0.758,0.238c1.692,0.544,3.327,1.133,4.842,1.688
			c0.042,0.017,0.081,0.036,0.117,0.059c1.181,0.776,2.747,1.782,4.399,2.683c3.914,2.133,7.725,4.265,11.335,6.858
			c4.166,2.995,8.291,6.72,12.873,11.636c-0.997-4.95-1.274-9.455-0.823-13.411c0.622-5.462,1.668-9.908,3.391-14.412l0.254-0.68
			c0.111-0.3,0.229-0.618,0.354-0.943c0.017-0.046,0.04-0.087,0.067-0.125c1.086-1.537,2.268-2.92,3.514-4.108
			c0.143-0.137,0.346-0.188,0.537-0.141c0.191,0.05,0.344,0.193,0.403,0.381c0.184,0.58,0.265,1.179,0.342,1.757
			c0.091,0.678,0.178,1.32,0.419,1.925c0.652,1.646,1.354,3.084,2.077,4.531c2.022,4.053,3.453,7.471,4.502,10.755
			c0.643,2.013,1.19,4.111,1.631,6.256c1.164-1.805,2.373-3.634,3.699-5.313c4.431-5.61,8.123-9.583,11.972-12.879
			c4.364-3.742,9.175-7.16,14.295-10.157c0.595-0.349,1.183-0.697,1.768-1.044c3.127-1.854,6.081-3.605,9.474-4.971
			c0.391-0.157,0.81-0.034,1.028,0.293c0.171,0.254,0.199,0.599,0.075,0.9c-0.555,1.336-1.381,2.438-2.181,3.503
			c-0.283,0.375-0.567,0.756-0.844,1.148c-0.672,0.96-1.321,1.936-1.969,2.913c-0.822,1.237-1.672,2.518-2.564,3.748
			c-2.766,3.814-5.934,7.77-9.685,12.095c-3.185,3.671-6.509,7.072-9.912,10.141c5.879-1.832,12.063-3.167,18.415-3.975
			c5.205-0.663,9.902-0.985,14.361-0.985c2.792,0,5.515,0.131,8.093,0.391c3.793,0.383,7.815,0.907,11.53,2.148l0.543,0.177
			c1.689,0.543,3.791,1.222,4.733,2.873c0.077,0.135,0.096,0.294,0.053,0.443c-0.044,0.15-0.146,0.275-0.283,0.347
			c-1.403,0.737-2.799,1.567-4.15,2.368c-1.05,0.624-2.095,1.243-3.142,1.825l-3.369,1.858c-0.036,0.021-0.074,0.036-0.114,0.047
			c-5.266,1.55-11.235,3.307-16.993,5.421c-2.233,0.82-4.437,1.627-6.654,2.405c0.936-0.003,1.865,0,2.795,0.016
			c5.434,0.085,11.835,0.399,18.114,2.072l0.171,0.044c0.771,0.197,3.117,0.79,4.854,1.61c0.189,0.089,0.314,0.274,0.327,0.483
			c0.012,0.208-0.09,0.407-0.267,0.517c-2.979,1.868-6.418,3.346-10.821,4.649c-5.599,0.661-10.137,1.135-14.378,1.51
			c-5.41,0.478-9.942,0.717-14.177,0.743c2.539,1.477,4.892,3.243,7.016,5.265c4.741,4.515,8.054,10.077,11.259,15.457
			c0.995,1.672,2.024,3.399,3.083,5.074c0.113,0.104,0.184,0.254,0.184,0.418c0,0.32-0.277,0.57-0.583,0.572
			c-0.02,0-0.045,0-0.068-0.004c-1.56-0.155-3.101-0.426-4.592-0.688c-0.854-0.149-1.683-0.295-2.474-0.413
			c-1.271-0.186-2.545-0.384-3.816-0.599c-0.057-0.011-0.113-0.03-0.165-0.057c-5.964-2.963-12.784-6.486-19.238-10.626
			c0.197,0.502,0.375,0.97,0.536,1.391l0.144,0.379c2.114,5.533,2.86,12.019,3.519,17.738l0.061,0.528
			c0.392,3.392,0.919,6.824,1.431,10.147c0.487,3.175,0.992,6.458,1.378,9.707c0.089,0.751,0.202,1.509,0.313,2.267
			c0.206,1.396,0.42,2.842,0.494,4.257l0.015,0.25c0.024,0.371,0.051,0.794,0.002,1.21c-0.022,0.203-0.152,0.378-0.339,0.459
			C84.976,126.591,84.898,126.605,84.82,126.605z M56.401,75.933c0.018,0,0.036,0,0.054,0.002c0.252,0.024,0.458,0.211,0.507,0.459
			c0.364,1.818,0.796,3.681,1.285,5.528c1.691,6.399,3.71,11.392,6.548,16.187c2.019,3.408,4.531,6.519,6.96,9.527
			c1.319,1.63,2.683,3.319,3.963,5.045c1.199,1.62,2.188,3.276,2.998,4.682c0.466,0.618,0.964,1.296,1.462,1.977
			c1.293,1.764,2.624,3.58,4.045,5.265c-0.075-1.334-0.28-2.715-0.477-4.053c-0.114-0.771-0.228-1.54-0.318-2.298
			c-0.384-3.23-0.888-6.506-1.374-9.67c-0.512-3.332-1.041-6.778-1.435-10.19l-0.061-0.526c-0.651-5.655-1.388-12.065-3.452-17.464
			l-0.144-0.377c-0.327-0.86-0.731-1.922-1.212-3.055c-0.098-0.233-0.033-0.502,0.161-0.663c0.195-0.161,0.472-0.176,0.682-0.035
			c6.845,4.541,14.243,8.371,20.576,11.519c1.184,0.202,2.448,0.399,3.711,0.585c0.801,0.117,1.641,0.266,2.506,0.417
			c1.09,0.191,2.208,0.387,3.333,0.54c-0.868-1.4-1.713-2.819-2.536-4.2c-3.165-5.314-6.438-10.809-11.065-15.213
			c-2.593-2.469-5.537-4.541-8.751-6.161c-0.237-0.121-0.361-0.389-0.298-0.646c0.063-0.256,0.292-0.438,0.556-0.438
			c0.002,0,0.004,0,0.007,0c4.913,0.064,9.989-0.172,16.335-0.733c4.23-0.373,8.759-0.845,14.25-1.485
			c3.751-1.117,6.82-2.383,9.49-3.927c-0.975-0.371-2.19-0.743-3.633-1.107l-0.185-0.048c-6.16-1.643-12.474-1.951-17.838-2.036
			c-2.109-0.032-4.224-0.012-6.337,0.036c-0.28,0.026-0.528-0.195-0.577-0.474c-0.048-0.279,0.114-0.55,0.382-0.641
			c3.363-1.125,6.655-2.324,10.014-3.558c5.772-2.122,11.736-3.879,17.005-5.428l3.312-1.827c1.038-0.575,2.072-1.189,3.112-1.807
			c1.178-0.699,2.39-1.419,3.62-2.086c-0.869-0.949-2.441-1.455-3.739-1.874l-0.555-0.182c-3.608-1.207-7.555-1.719-11.282-2.094
			c-2.54-0.256-5.225-0.385-7.979-0.385c-4.41,0-9.06,0.318-14.217,0.976c-7.093,0.902-13.971,2.469-20.441,4.655l-0.427,0.157
			c-0.259,0.091-0.548-0.016-0.685-0.256c-0.137-0.236-0.085-0.542,0.124-0.72c4.102-3.497,8.112-7.499,11.918-11.889
			c3.73-4.299,6.878-8.229,9.624-12.017c0.878-1.211,1.721-2.481,2.537-3.708c0.653-0.984,1.307-1.968,1.985-2.937
			c0.283-0.403,0.575-0.794,0.865-1.18c0.668-0.889,1.305-1.737,1.787-2.704c-3.015,1.287-5.774,2.924-8.685,4.649
			c-0.587,0.349-1.178,0.699-1.775,1.048c-5.061,2.963-9.814,6.341-14.128,10.037c-3.79,3.247-7.435,7.171-11.818,12.72
			c-1.509,1.912-2.88,4.047-4.206,6.112l-0.201,0.311c-0.126,0.197-0.357,0.299-0.591,0.252c-0.23-0.046-0.41-0.228-0.451-0.459
			c-0.473-2.586-1.101-5.115-1.868-7.52c-1.031-3.226-2.441-6.591-4.436-10.59c-0.734-1.472-1.448-2.935-2.117-4.621
			c-0.292-0.734-0.392-1.477-0.489-2.195c-0.027-0.203-0.054-0.403-0.085-0.597c-0.912,0.947-1.784,2.006-2.602,3.156
			c-0.115,0.299-0.222,0.591-0.324,0.865l-0.258,0.689c-1.687,4.413-2.711,8.773-3.323,14.134
			c-0.485,4.259-0.096,9.194,1.154,14.665l0.076,0.338c0.057,0.254-0.053,0.561-0.284,0.68c-0.231,0.117-0.503,0.117-0.677-0.073
			c-5.108-5.639-9.596-9.78-14.124-13.035c-3.557-2.556-7.334-4.666-11.215-6.78c-1.663-0.909-3.233-1.913-4.425-2.696
			c-1.359-0.498-2.813-1.023-4.312-1.514c0.932,2.088,1.927,3.882,2.965,5.343l0.737,1.04c2.97,4.186,5.774,8.141,9.063,11.968
			c2.712,3.156,5.68,5.841,8.821,7.983c0.199,0.135,0.292,0.383,0.231,0.614c-0.06,0.234-0.261,0.405-0.501,0.426
			c-4.632,0.431-9.315,1.501-13.286,2.492c-1.519,0.379-2.983,0.905-4.597,1.506c-2.39,1.572-5.167,2.588-7.919,3.511
			c0.746,0.161,1.515,0.28,2.23,0.39c0.428,0.068,0.842,0.133,1.229,0.203c2.745,0.488,5.667,0.49,8.491,0.494l1.624,0.006
			c0.787,0.004,1.57,0.008,2.35,0.008c4.054,0,8.406-0.101,12.782-0.828c0.249-0.04,0.494,0.085,0.605,0.309
			c0.112,0.226,0.064,0.498-0.119,0.669l-0.853,0.806c-2.45,2.324-5.038,4.592-7.541,6.786c-1.258,1.103-2.515,2.203-3.758,3.315
			c-4.239,3.789-8.271,6.99-12.327,9.785c-2.256,1.555-4.266,2.86-6.146,3.991c-0.33,0.197-0.664,0.356-0.991,0.512
			c-0.513,0.244-0.972,0.462-1.342,0.814c2.377-0.013,4.881-0.657,7.305-1.28c0.658-0.169,1.307-0.334,1.941-0.485
			c4.015-0.956,8.454-2.441,12.501-4.187c3.552-1.531,6.952-3.563,10.24-5.528l0.147-0.087c0.87-0.521,1.754-1.025,2.641-1.529
			l0.665-0.379c0.206-0.119,0.464-0.097,0.648,0.055c0.184,0.152,0.254,0.4,0.176,0.627l-0.234,0.683
			c-1.555,4.676-3.026,9.812-3.255,15.672c-0.184,4.687,0.15,9.529,0.473,14.211l0.119,1.744c0.164,2.431,0.614,4.899,1.051,7.286
			c0.255,1.398,0.517,2.827,0.723,4.26c0.467-1.096,0.971-2.206,1.52-3.354l0.228-1.021c0.206-0.917,0.42-1.864,0.568-2.762
			c0.993-6.012,3.524-11.931,5.619-16.413c1.172-2.508,2.717-4.99,4.21-7.389c1.795-2.883,3.651-5.865,4.905-8.953
			C55.959,76.073,56.17,75.933,56.401,75.933z"/>
	</g>
	<path style="opacity:0.6;fill:#417130;" d="M123.76,43.808c1.123-0.62,2.245-1.237,3.366-1.858c2.416-1.338,4.812-2.89,7.304-4.2
		c-0.081-0.141-0.186-0.266-0.287-0.393c-11.898,1.441-22.732,7.383-34.27,10.522c-0.46,0.125-0.936-0.411-0.646-0.84
		c3.092-4.573,7.733-7.28,12.056-10.529c1.757-1.32,3.534-2.605,5.365-3.787c-6.953-0.564-14.01-0.171-20.91,0.706
		c-6.969,0.887-13.896,2.433-20.553,4.682c-0.146,0.05-0.287,0.108-0.433,0.159c4.301-3.67,8.3-7.707,11.978-11.949
		c3.378-3.895,6.627-7.881,9.655-12.055c1.577-2.175,2.986-4.456,4.527-6.653c1.061-1.512,2.249-2.819,2.963-4.541
		c0.038-0.091,0.033-0.183,0.011-0.266c-4.833,3.402-9.747,6.786-13.781,11.042c-4.489,4.736-8.127,10.374-13.541,14.151
		c-0.403,0.28-1.006-0.186-0.84-0.646c1.392-3.859,3.226-7.602,5.434-11.123c-1.022,0.806-2.033,1.624-3.022,2.471
		c-4.42,3.787-8.295,8.241-11.894,12.801c-1.602,2.027-3.015,4.25-4.438,6.467c-0.468-2.565-1.087-5.091-1.885-7.59
		c-1.173-3.674-2.75-7.229-4.469-10.674c-0.775-1.556-1.453-2.95-2.097-4.575c-0.485-1.222-0.4-2.541-0.775-3.719
		c-1.262,1.205-2.406,2.558-3.441,4.021c-0.227,0.59-0.428,1.15-0.608,1.624c-1.806,4.721-2.785,9.253-3.357,14.271
		c-0.56,4.918,0.07,10.065,1.165,14.856c0.031,0.135,0.065,0.29,0.097,0.433c-4.342-4.792-8.988-9.357-14.214-13.112
		c-3.595-2.586-7.395-4.706-11.275-6.822c-1.527-0.832-2.99-1.752-4.44-2.707c-1.597-0.586-3.198-1.161-4.818-1.679
		c-0.118-0.038-0.366-0.117-0.667-0.21c3.068,3.097,6.637,5.855,10.042,8.182c3.957,2.702,9.017,4.325,12.158,8.077
		c0.333,0.397,0.108,0.93-0.404,0.976c-4.073,0.381-7.947-0.54-11.8-1.641c1.048,1.358,2.117,2.701,3.247,4.018
		c2.64,3.073,5.633,5.834,8.933,8.084c-4.531,0.419-9.065,1.431-13.373,2.507c-1.604,0.399-3.163,0.966-4.719,1.546
		c-1.742,1.155-3.707,2.005-5.729,2.745c4.058,0.32,8.123,0.532,12.194,0.661c0.518,0.016,0.847,0.828,0.289,1.064
		c-0.969,0.41-1.937,0.815-2.909,1.211c0.693,0.002,1.384,0.002,2.066,0.008c5.188,0.038,10.224,0.006,15.229-0.83
		c-0.284,0.269-0.572,0.538-0.854,0.806c-3.652,3.465-7.531,6.732-11.287,10.09c-3.91,3.493-7.95,6.762-12.27,9.742
		c-1.997,1.375-4.037,2.72-6.117,3.969c-1.004,0.604-2.046,0.822-2.758,1.771c-0.14,0.188-0.278,0.593,0.081,0.608
		c0.434,0.017,0.874,0.011,1.317-0.012c2.739-1.826,5.164-4.214,7.763-6.18c4.561-3.452,9.213-6.961,14.307-9.591
		c0.475-0.246,1.123,0.277,0.782,0.783c-2.408,3.569-4.519,7.324-6.733,11.015c1.772-0.624,3.521-1.29,5.178-2.003
		c3.639-1.568,7.059-3.622,10.453-5.651c1.084-0.647,2.192-1.271,3.296-1.902c-0.078,0.229-0.159,0.457-0.236,0.688
		c-1.746,5.245-3.067,10.261-3.285,15.83c-0.055,1.406-0.06,2.825-0.037,4.246c2.484-6.097,6.393-11.701,10.861-16.055
		c0.422-0.411,1.08,0.004,0.956,0.556c-2.776,12.358-9.075,25.115-7.836,37.915c0.344-0.773,0.692-1.542,1.059-2.306
		c0.283-1.306,0.606-2.614,0.815-3.878c0.917-5.553,3.203-11.191,5.573-16.265c2.556-5.47,6.802-10.64,9.127-16.369
		c0.38,1.904,0.82,3.776,1.293,5.564c1.548,5.856,3.502,11.083,6.609,16.331c1.967,3.324,4.344,6.299,6.743,9.268
		c-0.616-4.882-0.439-9.878,0.294-14.362c0.097-0.595,0.948-0.498,1.103,0c3.229,10.371,6.953,20.614,12.247,30.066
		c-0.177-1.731-0.49-3.479-0.693-5.186c-0.789-6.641-2.042-13.214-2.809-19.856c-0.687-5.958-1.394-12.496-3.545-18.129
		c-0.352-0.921-0.807-2.139-1.364-3.452c6.578,4.365,13.562,8.039,20.638,11.556c0.026,0.013,0.053,0.026,0.079,0.039
		c0.187,0.032,0.373,0.059,0.56,0.091c-2.882-3.574-5.424-7.397-7.287-11.653c-0.217-0.494,0.244-1.097,0.782-0.782
		c3.926,2.295,7.291,5.365,10.453,8.609c1.489,1.526,2.945,3.442,4.52,5.204c0.603,0.089,1.209,0.17,1.815,0.229
		c-4.496-7.089-8.146-14.65-14.325-20.534c-2.629-2.503-5.64-4.621-8.888-6.258c5.487,0.066,10.986-0.258,16.392-0.735
		c4.761-0.42,9.517-0.934,14.266-1.487c3.77-1.117,7.404-2.532,10.68-4.586c-0.329-0.153-0.685-0.3-1.046-0.437
		c-3.556,1.509-7.629,2.194-11.417,1.979c-3.188-0.184-6.318-0.84-9.5-1.054c-2.457-0.163-4.872,0.11-7.291-0.47
		c-0.519-0.125-0.516-0.778-0.137-1.046c1.644-1.163,3.419-2.004,5.269-2.648c-1.712-0.012-3.426,0.002-5.14,0.04
		c3.364-1.124,6.7-2.342,10.029-3.563C112.353,47.174,118.042,45.489,123.76,43.808z"/>
	<g>
		<path style="fill:#7EAF41;" d="M129.235,76.19c-8.546-5.087-16.442-10.636-26.352-13.044c-7.869-1.913-15.933-2.965-23.879-4.479
			c1.071-0.254,2.138-0.538,3.199-0.896c5.45-1.839,10.171-6.005,14.24-9.917c3.552-3.414,6.506-7.438,9.736-11.173
			c1.709-3.402,3.345-6.843,4.987-10.279c-1.321-0.356-3.004-0.481-4.023-0.477c-3.924,0.016-7.829-0.103-11.724,0.419
			c-5.917,0.796-11.588,2.844-16.832,5.649c-3.261,1.745-6.335,3.991-9.104,6.538c1.055-2.429,1.843-4.99,2.565-7.578
			c1.625-5.833,3.039-11.738,4.566-17.595c-1.623,1.03-3.371,1.894-5.11,2.757c-5.993,5.992-11.175,13.153-13.42,21.054
			c-0.654-4.551-1.767-9.003-3.972-13.313c-2.002-3.916-4.859-7.725-8.016-10.782c-1.829-1.775-3.787-3.477-5.805-5.034
			c-0.169-0.091-0.342-0.186-0.509-0.274c-1.54-0.815-3.176-1.527-4.763-2.322c-2.148,9.274-0.42,18.875,2.819,27.727
			c1.75,4.785,5.1,8.933,8.623,12.532c0.854,0.869,1.839,1.921,2.894,2.976c-5.497-4.048-12.634-6.611-18.743-8.504
			c-8.198-2.543-18.856-4.188-27.354-2.304c-0.374,0.083-0.729,0.484-0.605,0.883c0.977,3.146,5.63,5.994,7.893,8.286
			c4.049,4.093,8.348,7.453,13.453,10.149c0.786,0.417,1.589,0.792,2.406,1.139c-6.482,2.197-12.675,5.684-17.729,9.08
			c-0.234,0.157-0.887,1.318-0.158,1.158c7.631-1.666,15.69-0.878,23.387-2.7c2.728-0.647,5.426-1.377,7.993-2.36
			c-5.212,4.524-9.752,9.896-13.378,15.577c-3.597,5.636-5.729,12.164-7.31,18.605c-0.814,3.317-1.208,6.669-1.559,10.061
			c-0.088,0.849-0.335,1.941,0.049,2.747c0.129,0.272,0.51,0.1,0.663-0.048c3.569-3.414,6.506-7.472,10.072-10.938
			c3.522-3.426,6.97-6.931,10.22-10.613c4.843-5.494,9.059-11.686,12.003-18.417c-0.06,2.137-0.052,4.276,0.032,6.409
			c0.282,7.179,1.399,14.312,3.17,21.267c1.632,6.407,3.178,12.833,5.233,19.125c1.716,5.253,3.798,11.28,7.914,15.162
			c0.4,0.379,1.068-0.389,1.164-0.723c1.105-3.866,0.31-8.413,0.551-12.418c0.313-5.206,0.709-10.397,0.759-15.615
			c0.068-7.21-0.073-15.281-1.499-22.749c2.242,3.271,4.731,6.405,7.471,9.37c4.217,4.565,8.985,8.61,13.945,12.351
			c3.491,1.602,7.248,2.671,10.958,3.769c1.148,0.34,2.331,0.83,3.536,1.342c-0.589-3.315-2.804-7.036-4.14-9.725
			c-3.064-6.174-6.571-12.097-10.496-17.763c-2.752-3.974-5.781-7.846-9.016-11.559c4.064,2.139,8.357,3.537,12.789,5.019
			c6.087,2.038,13.061,2.868,19.407,3.73c5.923,0.803,11.956,0.189,17.849,0.976c0.157,0.021,0.38-0.093,0.572-0.26
			C130.342,77.498,129.804,76.833,129.235,76.19z"/>
		<path style="fill:#699136;" d="M67.258,133.115c-0.243,0-0.467-0.089-0.646-0.261c-4.05-3.819-6.125-9.462-8.064-15.397
			c-1.768-5.412-3.182-11.011-4.549-16.422l-0.694-2.741c-1.841-7.231-2.914-14.425-3.188-21.386
			c-0.048-1.228-0.072-2.483-0.07-3.759c-2.716,5.528-6.396,10.939-10.964,16.123c-2.875,3.259-6.133,6.642-10.251,10.646
			c-1.726,1.68-3.336,3.537-4.895,5.333c-1.641,1.893-3.337,3.848-5.18,5.609c-0.167,0.161-0.483,0.351-0.824,0.351
			c-0.331,0-0.611-0.176-0.75-0.474c-0.389-0.811-0.26-1.8-0.156-2.596c0.02-0.157,0.04-0.309,0.055-0.452
			c0.339-3.269,0.74-6.741,1.573-10.136c1.232-5.028,3.339-12.445,7.382-18.781c3.225-5.049,7.132-9.777,11.399-13.811
			c-1.956,0.617-3.843,1.091-5.399,1.459c-4.011,0.948-8.156,1.202-12.164,1.445c-3.723,0.226-7.573,0.458-11.233,1.258
			c-0.482,0.107-0.871-0.104-0.993-0.504c-0.183-0.606,0.418-1.491,0.711-1.687c5.67-3.812,11.217-6.726,16.51-8.669
			c-0.39-0.185-0.766-0.373-1.135-0.568c-4.927-2.605-9.246-5.863-13.593-10.255c-0.654-0.663-1.53-1.386-2.457-2.15
			c-2.268-1.874-4.839-3.998-5.576-6.37c-0.096-0.311-0.054-0.642,0.118-0.939c0.196-0.337,0.536-0.587,0.911-0.671
			c2.477-0.547,5.251-0.825,8.249-0.825c5.976,0,12.866,1.115,19.398,3.143c4.488,1.391,9.917,3.257,14.762,5.947
			c-4.162-4.341-6.788-8.234-8.243-12.209c-3.793-10.368-4.748-19.805-2.838-28.052c0.04-0.173,0.155-0.314,0.314-0.391
			c0.158-0.074,0.342-0.072,0.499,0.008c0.661,0.329,1.33,0.648,1.997,0.964c0.939,0.443,1.874,0.887,2.777,1.364l0.512,0.278
			c2.091,1.604,4.061,3.31,5.933,5.125c3.239,3.138,6.126,7.02,8.127,10.932c1.682,3.287,2.858,6.873,3.645,11.142
			c2.298-6.409,6.606-12.8,12.834-19.025c0.044-0.043,0.095-0.079,0.15-0.107c1.709-0.845,3.463-1.717,5.057-2.729
			c0.199-0.125,0.454-0.117,0.643,0.021c0.19,0.14,0.276,0.379,0.217,0.605c-0.54,2.073-1.067,4.151-1.593,6.229
			c-0.946,3.738-1.924,7.601-2.976,11.375c-0.464,1.669-1.015,3.543-1.705,5.428c2.376-1.983,4.864-3.676,7.423-5.045
			c5.672-3.035,11.4-4.956,17.026-5.712c2.937-0.393,5.892-0.425,8.666-0.425l2.179,0.002l0.953-0.002
			c1.097,0,2.811,0.129,4.174,0.496c0.164,0.044,0.3,0.159,0.371,0.314c0.071,0.154,0.07,0.332-0.003,0.485l-0.36,0.752
			c-1.497,3.136-3.045,6.379-4.632,9.537c-0.021,0.044-0.048,0.082-0.078,0.118c-1.027,1.186-2.024,2.401-3.023,3.618
			c-2.116,2.576-4.305,5.244-6.749,7.593c-4.304,4.138-9.033,8.217-14.455,10.045c-0.256,0.088-0.517,0.173-0.786,0.254
			c1.973,0.354,3.955,0.689,5.89,1.018c5.112,0.866,10.399,1.76,15.527,3.007c8.367,2.032,15.154,6.185,22.339,10.581
			c1.381,0.845,2.767,1.693,4.17,2.529c0.05,0.028,0.096,0.066,0.136,0.111c0.557,0.629,1.112,1.313,1.65,2.035
			c0.179,0.238,0.142,0.575-0.083,0.772c-0.173,0.149-0.521,0.401-0.908,0.401l0,0c-0.026,0-0.09-0.003-0.116-0.007
			c-2.894-0.387-5.893-0.433-8.792-0.476c-2.972-0.046-6.044-0.091-9.058-0.5l-1.543-0.209c-6.057-0.813-12.32-1.653-17.968-3.545
			l-0.574-0.192c-3.403-1.137-6.659-2.225-9.815-3.653c2.605,3.115,5.043,6.308,7.268,9.517c3.948,5.7,7.494,11.7,10.539,17.835
			c0.259,0.521,0.551,1.082,0.858,1.671c1.242,2.382,2.782,5.337,3.303,8.052c0.039,0.076,0.061,0.163,0.061,0.256
			c0,0.316-0.256,0.572-0.572,0.572c-0.009-0.002-0.016,0-0.023,0c-0.076,0-0.151-0.016-0.224-0.046
			c-1.198-0.508-2.365-0.992-3.474-1.32l-0.759-0.224c-3.435-1.016-6.986-2.064-10.276-3.576c-0.037-0.016-0.073-0.038-0.105-0.063
			c-5.65-4.259-10.236-8.32-14.021-12.416c-2.147-2.323-4.179-4.795-6.062-7.374c1.047,6.866,1.141,14.086,1.082,20.368
			c-0.04,4.21-0.309,8.465-0.569,12.578l-0.19,3.067c-0.083,1.383-0.042,2.812,0.003,4.323c0.081,2.766,0.165,5.627-0.575,8.219
			C68.599,132.297,67.975,133.115,67.258,133.115z M50.658,69.906c0.041,0,0.083,0.006,0.124,0.016
			c0.268,0.059,0.455,0.299,0.448,0.572c-0.06,2.165-0.05,4.31,0.031,6.371c0.271,6.879,1.331,13.993,3.153,21.147l0.694,2.741
			c1.363,5.394,2.772,10.974,4.527,16.348c1.875,5.741,3.875,11.197,7.669,14.833c0.12-0.086,0.281-0.277,0.317-0.377
			c0.691-2.416,0.609-5.186,0.531-7.864c-0.043-1.471-0.088-2.992-0.002-4.426l0.191-3.071c0.259-4.1,0.527-8.336,0.566-12.516
			c0.066-6.994-0.059-15.152-1.489-22.638c-0.05-0.265,0.092-0.53,0.342-0.634c0.248-0.107,0.538-0.02,0.692,0.204
			c2.246,3.279,4.742,6.409,7.419,9.306c3.727,4.034,8.248,8.039,13.82,12.245c3.2,1.462,6.69,2.493,10.067,3.491l0.759,0.224
			c0.84,0.248,1.698,0.576,2.57,0.936c-0.624-2.306-1.916-4.779-2.98-6.824c-0.311-0.597-0.607-1.163-0.869-1.691
			c-3.02-6.083-6.538-12.036-10.454-17.691c-2.702-3.9-5.723-7.773-8.978-11.509c-0.181-0.209-0.188-0.516-0.017-0.731
			c0.17-0.216,0.471-0.28,0.714-0.151c3.848,2.025,7.871,3.37,12.13,4.793l0.575,0.191c5.546,1.856,11.753,2.69,17.758,3.497
			l1.544,0.208c2.946,0.4,5.983,0.445,8.921,0.491c2.765,0.04,5.617,0.083,8.417,0.421c-0.324-0.411-0.653-0.806-0.982-1.181
			c-1.381-0.822-2.746-1.658-4.105-2.487c-7.107-4.35-13.82-8.455-22.012-10.446c-5.089-1.237-10.356-2.13-15.448-2.99
			c-2.758-0.468-5.61-0.951-8.403-1.483c-0.265-0.051-0.458-0.28-0.464-0.549c-0.005-0.27,0.177-0.506,0.44-0.568
			c1.222-0.29,2.223-0.568,3.147-0.881c5.208-1.759,9.82-5.743,14.027-9.787c2.396-2.305,4.563-4.943,6.658-7.497
			c0.99-1.203,1.979-2.408,2.995-3.585c1.571-3.129,3.106-6.343,4.59-9.453l0.053-0.11c-1.112-0.22-2.345-0.303-3.16-0.303
			l-0.996,0.004l-2.179-0.004c-2.735,0-5.646,0.032-8.514,0.417c-5.489,0.736-11.088,2.614-16.638,5.585
			c-3.126,1.675-6.15,3.846-8.985,6.454c-0.198,0.185-0.499,0.203-0.719,0.046c-0.22-0.155-0.301-0.445-0.193-0.693
			c1.099-2.533,1.899-5.216,2.538-7.504c1.048-3.761,2.024-7.618,2.969-11.349c0.412-1.629,0.824-3.257,1.243-4.88
			c-1.265,0.726-2.581,1.379-3.866,2.016c-6.788,6.801-11.232,13.78-13.209,20.739c-0.075,0.26-0.31,0.423-0.589,0.415
			c-0.269-0.02-0.489-0.224-0.528-0.491c-0.747-5.202-1.991-9.376-3.915-13.135c-1.944-3.804-4.753-7.578-7.904-10.63
			c-1.841-1.786-3.778-3.465-5.757-4.99l-0.428-0.224c-0.887-0.47-1.807-0.905-2.731-1.343c-0.454-0.215-0.909-0.433-1.362-0.65
			c-1.646,7.858-0.653,16.835,2.954,26.696c1.455,3.975,4.154,7.892,8.495,12.327c0.327,0.332,0.673,0.693,1.035,1.068
			c0.582,0.606,1.206,1.255,1.854,1.904c0.211,0.212,0.225,0.552,0.029,0.777c-0.194,0.227-0.531,0.267-0.772,0.087
			c-5.526-4.071-12.829-6.639-18.573-8.42c-6.426-1.992-13.195-3.09-19.06-3.09c-2.914,0-5.606,0.268-8.002,0.8
			C3.289,38.447,3.203,38.548,3.2,38.59c0.635,2.038,3.066,4.047,5.211,5.818c0.95,0.784,1.847,1.524,2.542,2.229
			c4.262,4.307,8.493,7.499,13.314,10.047c0.738,0.389,1.511,0.754,2.362,1.116c0.218,0.093,0.356,0.311,0.348,0.547
			c-0.009,0.237-0.163,0.443-0.388,0.521c-5.602,1.898-11.521,4.931-17.593,9.012c3.562-0.718,7.242-0.941,10.808-1.157
			c3.96-0.24,8.055-0.489,11.97-1.415c2.223-0.527,5.132-1.27,7.919-2.338c0.257-0.101,0.552,0,0.695,0.238
			c0.143,0.239,0.094,0.546-0.115,0.728C35.275,68.275,30.687,73.618,27,79.389c-3.952,6.193-6.021,13.487-7.235,18.436
			c-0.816,3.325-1.212,6.756-1.546,9.982c-0.016,0.155-0.038,0.316-0.06,0.483c-0.069,0.537-0.147,1.135-0.055,1.61
			c1.771-1.713,3.396-3.585,4.968-5.399c1.574-1.813,3.2-3.689,4.962-5.403c4.097-3.982,7.334-7.346,10.19-10.581
			c5.161-5.854,9.167-12,11.908-18.268C50.226,70.037,50.434,69.906,50.658,69.906z"/>
	</g>
	<path style="fill:#7EAF41;" d="M84.09,66.197c9.236,0.313,17.932,3.61,26.811,5.817c6.436,1.598,12.852,2.9,19.05,5.059
		c-0.239-0.292-0.464-0.599-0.716-0.883c-8.546-5.087-16.442-10.636-26.352-13.044c-7.869-1.913-15.933-2.965-23.879-4.479
		c1.071-0.254,2.138-0.538,3.199-0.896c5.45-1.839,10.171-6.005,14.24-9.917c3.552-3.414,6.506-7.438,9.736-11.173
		c1.709-3.402,3.345-6.843,4.987-10.279c-0.045-0.014-0.095-0.021-0.14-0.032c-1.815,2.033-3.98,3.825-5.894,5.653
		c-3.492,3.344-7.179,6.506-11.237,9.148c-8.161,5.315-16.961,9.465-26.238,12.427c-0.482,0.153-0.897-0.421-0.646-0.842
		c5.093-8.487,9.499-16.424,17.956-22.041c1.915-1.274,3.905-2.47,5.967-3.523c-4.304,1.044-8.444,2.713-12.348,4.801
		c-3.261,1.745-6.335,3.991-9.104,6.538c1.055-2.429,1.843-4.99,2.565-7.578c1.625-5.833,3.039-11.738,4.566-17.595
		c-0.619,0.392-1.268,0.744-1.915,1.101c-3.495,4.644-5.954,10.134-7.971,15.522c-1.631,4.357-3.226,8.854-4.174,13.419
		c-0.626,3.014-0.786,6.272-2.369,8.982c-0.234,0.401-0.952,0.367-1.044-0.137c-1.178-6.367-0.914-13.137,0.59-19.633
		c-0.65,1.489-1.206,3.009-1.646,4.557c-0.654-4.551-1.767-9.003-3.972-13.313c-2.002-3.916-4.859-7.725-8.016-10.782
		c-1.829-1.775-3.787-3.477-5.805-5.034c-0.169-0.091-0.342-0.186-0.509-0.274c-1.351-0.714-2.774-1.358-4.174-2.04
		c3.716,5.174,6.062,11.278,8.372,17.192c3.447,8.823,8.547,17.149,10.927,26.355c0.118,0.458-0.408,0.939-0.84,0.646
		c-6.063-4.147-11.372-9.366-15.641-15.326c1.851,4.188,4.867,7.871,8.035,11.109c0.854,0.869,1.839,1.921,2.894,2.976
		c-5.497-4.048-12.634-6.611-18.743-8.504c-7.611-2.362-17.342-3.942-25.496-2.65c15.854,3.016,31.046,8.768,45.96,14.973
		c0.556,0.231,0.546,1.138-0.152,1.121c-9.307-0.218-18.781-1.326-27.702-4.083c-4.689-1.447-9.266-3.192-13.631-5.446
		c-1.989-1.027-4.044-2.016-5.832-3.374c-0.031-0.023-0.062-0.048-0.092-0.07c1.772,2.396,5.079,4.573,6.879,6.396
		c4.049,4.093,8.348,7.453,13.453,10.149c0.706,0.373,1.43,0.707,2.162,1.022c6.015-0.632,12.036-1.168,18.092-0.97
		c0.539,0.018,0.819,0.794,0.289,1.064c-5.768,2.94-12.125,3.934-18.218,5.943c-3.641,1.203-7.224,2.48-10.899,3.357
		c5.49-0.459,11.073-0.462,16.48-1.741c2.728-0.647,5.426-1.377,7.993-2.36c-5.212,4.524-9.752,9.896-13.378,15.577
		c-1.49,2.332-2.716,4.823-3.768,7.394c1.445-2.189,3.011-4.3,4.727-6.305c2.676-3.124,5.538-6.278,8.861-8.729
		c3.668-2.708,7.696-4.858,11.438-7.453c0.513-0.354,1.009,0.312,0.783,0.784c-4.506,9.366-9.712,18.155-15.955,26.468
		c-3.21,4.274-6.318,8.617-9.396,12.985c-0.911,1.294-1.891,2.652-2.767,4.075c2.688-2.892,5.146-6.024,7.993-8.792
		c3.522-3.426,6.97-6.931,10.22-10.613c4.843-5.494,9.059-11.686,12.003-18.417c-0.06,2.137-0.052,4.276,0.032,6.409
		c0.091,2.332,0.28,4.658,0.542,6.975c0.124-1.308,0.274-2.61,0.443-3.898c1.03-7.896,1.774-16.589,5.429-23.776
		c0.228-0.449,0.923-0.324,1.045,0.136c3.561,13.475,4.584,27.462,5.852,41.292c0.681,7.435,1.533,14.826,2.384,22.239
		c0.44,3.831,0.723,7.802,1.879,11.449c0.94-3.778,0.225-8.142,0.457-12.004c0.313-5.206,0.709-10.397,0.759-15.615
		c0.068-7.21-0.073-15.281-1.499-22.749c2.055,2.999,4.329,5.877,6.802,8.62c-0.271-0.637-0.544-1.273-0.794-1.914
		c-2.979-7.621-4.854-15.626-5.91-23.732c-0.072-0.555,0.839-0.792,1.065-0.288c4.026,8.986,8.044,18.3,14.58,25.802
		c3.598,4.13,7.835,7.673,11.972,11.246c2.636,2.277,5.321,4.488,8.079,6.606c-0.706-3.188-2.755-6.675-4.026-9.232
		c-3.064-6.174-6.571-12.097-10.496-17.763c-2.752-3.974-5.781-7.846-9.016-11.559c4.064,2.139,8.357,3.537,12.789,5.019
		c5.129,1.718,10.886,2.574,16.369,3.319c-2.046-0.713-4.1-1.414-6.186-2.021c-6.665-1.942-13.55-3.941-19.407-7.775
		C83.348,66.966,83.494,66.178,84.09,66.197z"/>
	<g>
		<path style="fill:#7EAF41;" d="M38.319,25.965c-1.331-4.805-1.676-9.795-2.946-14.594c-0.18,2.808,0.981,12.661,1.265,13.618
			c1.341,4.509,3.786,9.62,6.754,13.32c0.121,0.149,0.345,0.045,0.521-0.133C41.603,34.323,39.515,30.28,38.319,25.965z"/>
		<path style="fill:#7EAF41;" d="M31.666,48.667c-3.723-0.849-7.138-1.902-10.676-3.253c0.725,0.731,1.486,1.417,2.293,2.048
			c2.411,1.167,4.852,2.137,7.634,2.529C31.493,50.072,32.365,48.828,31.666,48.667z"/>
		<path style="fill:#7EAF41;" d="M21.517,101.44c1.774-5.899,3.123-12.566,6.456-17.809c0.336-0.89,0.683-1.776,1.046-2.654
			c-6.616,5.686-7.7,14.062-8.93,22.274c-0.011,0.08-0.006,0.137,0.004,0.186C20.636,102.826,21.108,102.155,21.517,101.44z"/>
		<path style="fill:#7EAF41;" d="M58.338,101.501c-0.741-3.372-1.636-6.696-2.504-10.029c-0.688-1.314-1.446-2.598-2.189-3.896
			c0.408,6.31,2.069,11.731,4.058,17.902c0.084,0.263,0.309,0.252,0.545,0.115C58.274,104.231,58.335,102.861,58.338,101.501z"/>
		<path style="fill:#7EAF41;" d="M86.324,96.544c-3.254-2.787-6.377-5.775-8.874-9.24c-0.484-0.28-0.977-0.49-1.471-0.61
			c2.898,5.584,7.146,10.038,12.536,13.294c0.186,0.112,0.427,0.006,0.612-0.17C88.185,98.733,87.253,97.639,86.324,96.544z"/>
		<path style="fill:#7EAF41;" d="M97.816,29.545c0.842-0.256,1.688-0.496,2.567-0.686c0.316-0.068,0.692-0.113,1.082-0.165
			c0.947-0.352,1.816-0.754,2.473-1.089c0.022-0.167-0.035-0.302-0.261-0.214c-0.129,0.049-1.297-0.016-1.076-0.004
			c-0.946-0.052-1.927,0.105-2.869,0.188c-1.555,0.131-3.133,0.443-4.476,1.262C95.889,29.403,96.796,29.595,97.816,29.545z"/>
	</g>
</g>
</svg>
