<svg width="307" height="62" viewBox="0 0 307 62" fill="none" xmlns="http://www.w3.org/2000/svg">
<path fill-rule="evenodd" clip-rule="evenodd" d="M27.224 58.5549L27.224 58.5549C19.916 60.2733 10.2587 62.5442 8.26223 61.5459C7.43341 61.1315 6.84953 60.73 6.31282 60.361C5.55443 59.8395 4.89023 59.3828 3.76223 59.0459C3.20558 58.8797 2.77226 58.9234 2.37876 58.9631C1.83705 59.0177 1.37083 59.0648 0.762228 58.5459C-0.583309 57.3988 0.262229 54.0459 0.262229 54.0459C0.262229 54.0459 4.86242 51.9584 8.26223 51.0459C9.26162 50.7777 10.1952 50.5752 11.0859 50.4184C11.03 50.6024 11 50.7977 11 51C11 52.1046 11.8954 53 13 53C14.1046 53 15 52.1046 15 51C15 50.6221 14.8952 50.2686 14.713 49.9672C15.4279 49.9083 16.1348 49.8625 16.8491 49.8162L16.8497 49.8162C18.9568 49.6797 21.129 49.539 23.7622 49.0459C24.2648 48.9518 24.7278 48.8674 25.1652 48.7877C27.1193 48.4314 28.5642 48.168 30.7622 47.5459C33.4256 46.7921 34.9259 46.188 37.3946 45.1939L37.7622 45.0459C38.0259 44.9398 38.2825 44.8368 38.5329 44.7363L38.5358 44.7351C42.2857 43.2296 44.6416 42.2837 48.2622 40.0459C51.4897 38.0511 53.4302 36.3007 55.7582 34.2009L55.7583 34.2008C56.6673 33.3809 57.6354 32.5077 58.7622 31.5459C62.4617 28.3881 65.1578 25.5489 67.7879 22.7793C70.9832 19.4144 74.081 16.1521 78.7622 12.5459C79.5153 11.9658 80.1983 11.4275 80.8425 10.9197C83.4288 8.88129 85.3911 7.33467 88.7622 5.54591C93.1834 3.20002 95.8722 2.11227 100.762 1.04591C104.977 0.126868 107.452 -0.114154 111.762 0.0459072C114.737 0.156351 116.816 0.638332 119.15 1.17955C120.391 1.46723 121.704 1.77165 123.262 2.04591C125.253 2.39634 126.919 2.73262 128.499 3.05148C131.26 3.60862 133.757 4.11258 137.262 4.54591C143.476 5.31393 153.262 5.54591 153.262 5.54591L167.262 4.54591C167.262 4.54591 176.073 2.8544 181.762 2.04591C183.133 1.85111 184.34 1.65176 185.473 1.46463C188.523 0.961031 191.036 0.545907 194.762 0.545907C199.873 0.545907 202.825 0.724733 207.762 2.04591C213.19 3.4985 216.146 5.23948 220.733 7.9405L220.735 7.94174C221.068 8.13798 221.41 8.33928 221.762 8.54591C227.185 11.729 230.056 13.8756 234.762 18.0459C237.169 20.1784 238.765 21.9938 240.435 23.8919L240.435 23.892L240.435 23.8921C241.706 25.3367 243.018 26.8292 244.762 28.5459C245.369 29.1437 245.921 29.6929 246.441 30.2105L246.441 30.2107C248.533 32.2945 250.112 33.8678 252.762 36.0459C255.568 38.3522 257.177 39.629 260.262 41.5459C263.971 43.8503 266.152 45.073 270.262 46.5459C273.448 47.6874 275.675 48.07 278.499 48.5549L278.499 48.555C279.352 48.7014 280.258 48.8572 281.262 49.0459C283.662 49.4971 285.654 49.6424 287.577 49.7827C289.552 49.9267 291.454 50.0654 293.65 50.5244C293.25 50.89 293 51.4158 293 52C293 53.1046 293.895 54 295 54C296.105 54 297 53.1046 297 52C297 51.7798 296.964 51.5678 296.899 51.3696C299.448 52.1006 301.189 52.6593 303.762 54.0459C304.083 54.219 304.397 54.3339 304.694 54.4426C305.323 54.6731 305.876 54.8757 306.262 55.5459C306.848 56.5607 306.875 57.5473 306.262 58.5459C305.727 59.4187 304.863 59.2561 303.906 59.0759C303.211 58.945 302.466 58.8048 301.762 59.0459C301.011 59.3032 300.722 59.6173 300.395 59.9716C299.964 60.4393 299.469 60.9769 297.762 61.5459C294.762 62.5459 285.066 60.6837 277.262 58.5459C272.258 57.1751 269.434 56.3032 264.762 54.0459C256.955 50.2733 252.889 47.1821 246.762 41.0459C244.135 38.4142 242.539 36.0884 240.882 33.6748C239.564 31.7537 238.208 29.777 236.262 27.5459C235.753 26.9623 235.295 26.4271 234.863 25.9231L234.861 25.9211C233.214 23.9978 231.954 22.5276 229.762 20.5459C226.926 17.9823 225.092 16.7616 221.966 14.6817L221.762 14.5459C221.276 14.2226 220.824 13.9176 220.393 13.6274L220.393 13.6271C217.982 12.0021 216.262 10.8423 213.262 9.54591C210.862 8.50846 209.208 8.07834 207.028 7.51173C206.48 7.36907 205.898 7.21775 205.262 7.04591C204.893 6.94617 204.563 6.85384 204.254 6.76715C203.258 6.48853 202.47 6.26799 201.262 6.04591C198.375 5.51505 196.689 5.324 193.762 5.54591C190.974 5.75725 189.427 6.19889 186.762 7.04591C185.568 7.42562 184.719 7.7969 183.812 8.19356C183.198 8.46249 182.556 8.74309 181.762 9.04591C181.413 9.179 181.075 9.30841 180.745 9.43445L180.742 9.43556C176.165 11.1844 173.289 12.2835 168.262 13.5459C167.521 13.7321 166.82 13.9121 166.15 14.0845L166.149 14.0846C161.609 15.2516 158.436 16.067 153.262 16.0459C148.189 16.0253 144.945 15.1341 140.712 13.9713C139.641 13.677 138.506 13.3653 137.262 13.0459C131.7 11.6175 123.262 8.54591 123.262 8.54591C123.262 8.54591 116.397 5.79218 111.762 5.54591C107.56 5.3226 105.111 5.94332 101.128 6.95331L100.762 7.04591C97.3498 7.91005 95.445 8.54216 92.2622 10.0459C89.7278 11.2433 88.2255 12.2441 86.1898 13.6001C85.7449 13.8965 85.2745 14.2098 84.7622 14.5459C81.9534 16.3888 80.3772 17.437 77.7622 19.5459C74.4287 22.2342 72.7121 23.9415 69.7622 27.0459C67.4212 29.5097 65.9029 31.7228 64.3942 33.9219C62.8163 36.2217 61.2491 38.5062 58.7622 41.0459L58.3226 41.495C52.8458 47.0908 49.4525 50.5578 42.2622 54.0459C37.8318 56.1951 34.6711 56.8932 30.5001 57.8143C29.4907 58.0372 28.4222 58.2731 27.2622 58.5459L27.224 58.5549Z" fill="#F26E1B"/>
<path d="M34 46.5L40 54.9998C40 54.9998 44.9355 52.9999 49 49.9998C51.9593 47.8156 56.5 43.4999 56.5 43.4999L52 37.5C52 37.5 47 41 44 42.5C40.995 44.0025 34 46.5 34 46.5Z" fill="black"/>
<path d="M273 47.5001L269 56.0001C269 56.0001 262.856 53.5815 259.5 51.5001C256.236 49.4756 251.5 45.5 251.5 45.5L256.5 39C256.5 39 263.652 43.5806 264.5 44C265.348 44.4195 273 47.5001 273 47.5001Z" fill="black"/>
<path d="M122 8.5V1.5C122 1.5 142.481 4.90949 153.5 5C165.295 5.09688 182.5 1.5 182.5 1.5V9C182.5 9 165.529 17.1894 153.5 17C142.23 16.8225 122 8.5 122 8.5Z" fill="black"/>
</svg>
