<svg width="112" height="66" viewBox="0 0 112 66" fill="none" xmlns="http://www.w3.org/2000/svg">
<ellipse cx="15" cy="40.5" rx="12" ry="12.5" fill="white"/>
<ellipse cx="24.5026" cy="27.8774" rx="12" ry="12.5" transform="rotate(85.3162 24.5026 27.8774)" fill="white"/>
<ellipse cx="15" cy="40.5" rx="12" ry="12.5" transform="rotate(12.9897 15 40.5)" fill="url(#paint0_linear_18_34)"/>
<ellipse cx="24.5026" cy="27.8775" rx="12" ry="12.5" transform="rotate(98.3058 24.5026 27.8775)" fill="url(#paint1_linear_18_34)"/>
<ellipse cx="15.6645" cy="16.5269" rx="15.6645" ry="16.5269" transform="matrix(0.957371 -0.288862 0.30822 0.951315 19 19.0498)" fill="white"/>
<ellipse cx="15.6645" cy="16.5269" rx="15.6645" ry="16.5269" transform="matrix(0.957371 -0.288862 0.30822 0.951315 19 19.0498)" fill="url(#paint2_linear_18_34)"/>
<ellipse cx="13.9079" cy="14.4636" rx="13.9079" ry="14.4636" transform="matrix(0.686149 -0.727461 0.66646 0.745541 73.2084 38.2131)" fill="white"/>
<ellipse cx="9.37079" cy="9.72283" rx="9.37079" ry="9.72283" transform="matrix(-0.977974 -0.208728 0.208247 -0.978076 82.6396 37.9658)" fill="white"/>
<ellipse cx="13.9079" cy="14.4636" rx="13.9079" ry="14.4636" transform="matrix(0.686149 -0.727461 0.66646 0.745541 73.2084 38.2131)" fill="url(#paint3_linear_18_34)"/>
<ellipse cx="9.37079" cy="9.72283" rx="9.37079" ry="9.72283" transform="matrix(-0.977974 -0.208728 0.208247 -0.978076 82.6396 37.9658)" fill="url(#paint4_linear_18_34)"/>
<ellipse cx="34" cy="48" rx="14" ry="13" fill="white"/>
<ellipse cx="34" cy="48" rx="14" ry="13" fill="url(#paint5_linear_18_34)"/>
<ellipse cx="15.6645" cy="16.5269" rx="15.6645" ry="16.5269" transform="matrix(0.957371 -0.288862 0.30822 0.951315 38.9093 9.30273)" fill="white"/>
<ellipse cx="15.6645" cy="16.5269" rx="15.6645" ry="16.5269" transform="matrix(0.957371 -0.288862 0.30822 0.951315 38.9093 9.30273)" fill="url(#paint6_linear_18_34)"/>
<ellipse cx="16.9732" cy="16.7544" rx="16.9732" ry="16.7544" transform="matrix(0.908539 -0.4178 0.392682 0.919674 51 35.1829)" fill="white"/>
<ellipse cx="16.9732" cy="16.7544" rx="16.9732" ry="16.7544" transform="matrix(0.908539 -0.4178 0.392682 0.919674 51 35.1829)" fill="url(#paint7_linear_18_34)"/>
<ellipse cx="13.9079" cy="14.4636" rx="13.9079" ry="14.4636" transform="matrix(0.895458 -0.445145 0.367363 0.930078 36.2327 38.8599)" fill="white"/>
<ellipse cx="13.9079" cy="14.4636" rx="13.9079" ry="14.4636" transform="matrix(0.895458 -0.445145 0.367363 0.930078 36.2327 38.8599)" fill="url(#paint8_linear_18_34)"/>
<defs>
<linearGradient id="paint0_linear_18_34" x1="15.4444" y1="42" x2="10.4844" y2="57.1864" gradientUnits="userSpaceOnUse">
<stop stop-color="#D1CFCF" stop-opacity="0"/>
<stop offset="1" stop-color="#6B6A6A"/>
</linearGradient>
<linearGradient id="paint1_linear_18_34" x1="24.9471" y1="29.3775" x2="7.91023" y2="48.7532" gradientUnits="userSpaceOnUse">
<stop stop-color="#D1CFCF" stop-opacity="0"/>
<stop offset="1" stop-color="#6B6A6A"/>
</linearGradient>
<linearGradient id="paint2_linear_18_34" x1="16.2447" y1="18.5101" x2="9.54374" y2="-21.5733" gradientUnits="userSpaceOnUse">
<stop stop-color="#D1CFCF" stop-opacity="0"/>
<stop offset="1" stop-color="#6B6A6A"/>
</linearGradient>
<linearGradient id="paint3_linear_18_34" x1="5.67789" y1="6.59562" x2="40.0377" y2="55.7024" gradientUnits="userSpaceOnUse">
<stop stop-color="#D1CFCF" stop-opacity="0"/>
<stop offset="1" stop-color="#6B6A6A"/>
</linearGradient>
<linearGradient id="paint4_linear_18_34" x1="9.71786" y1="10.8896" x2="-0.90159" y2="34.9782" gradientUnits="userSpaceOnUse">
<stop stop-color="#D1CFCF" stop-opacity="0"/>
<stop offset="1" stop-color="#6B6A6A"/>
</linearGradient>
<linearGradient id="paint5_linear_18_34" x1="34.5185" y1="49.56" x2="29.8272" y2="65.6728" gradientUnits="userSpaceOnUse">
<stop stop-color="#D1CFCF" stop-opacity="0"/>
<stop offset="1" stop-color="#6B6A6A"/>
</linearGradient>
<linearGradient id="paint6_linear_18_34" x1="18.7266" y1="23.238" x2="30.1136" y2="-18.5958" gradientUnits="userSpaceOnUse">
<stop stop-color="#D1CFCF" stop-opacity="0"/>
<stop offset="1" stop-color="#6B6A6A"/>
</linearGradient>
<linearGradient id="paint7_linear_18_34" x1="17.6019" y1="18.7649" x2="9.78806" y2="48.487" gradientUnits="userSpaceOnUse">
<stop stop-color="#D1CFCF" stop-opacity="0"/>
<stop offset="1" stop-color="#6B6A6A"/>
</linearGradient>
<linearGradient id="paint8_linear_18_34" x1="14.423" y1="16.1992" x2="7.3194" y2="37.7201" gradientUnits="userSpaceOnUse">
<stop stop-color="#D1CFCF" stop-opacity="0"/>
<stop offset="1" stop-color="#6B6A6A"/>
</linearGradient>
</defs>
</svg>
