<svg width="300" height="300" viewBox="0 0 300 300" fill="none" xmlns="http://www.w3.org/2000/svg">
<path d="M176.5 151H186.5V149H176.5V151ZM198.5 151H211.5V149H198.5V151ZM223.5 151H298.997C298.461 232.497 232.497 298.461 151 298.997V221.5H149V298.997C67.5029 298.461 1.53892 232.497 1.00329 151H78V149H1.00329C1.53892 67.5029 67.5029 1.53892 149 1.00329V71.5H151V1.00329C232.497 1.53892 298.461 67.5029 298.997 149H223.5V151ZM113 151H122.5V149H113V151ZM90.5 151H102.5V149H90.5V151ZM149 173V185.5H151V173H149ZM149 197V209H151V197H149ZM149 113.5V126H151V113.5H149ZM149 86V101H151V86H149ZM149 149H146.5V151H149V153.5H151V151H153.5V149H151V146.5H149V149Z" stroke="black" stroke-width="2"/>
<path d="M150 146.5V150M150 153.5V150M150 150H153.5H146.5" stroke="#FF0000" stroke-width="2"/>
</svg>
