<svg width="304" height="323" viewBox="0 0 304 323" fill="none" xmlns="http://www.w3.org/2000/svg">
<path d="M181.25 171.5L190.75 168.5H197.25H206.75L210.25 171.5V182.5L200.25 191H181.25L175.75 182.5V173.5L181.25 171.5Z" fill="black" fill-opacity="0.1"/>
<path d="M197.25 168.5H192.75V155.5L197.25 153.5V168.5Z" fill="#A52A2A"/>
<path d="M203.25 153.5H198.75H190.25L181.75 143V131L186.75 126L181.75 122.5V114L186.75 106.5V96.5L196.75 76.5H203.25V80.5L209.75 89.5L211.75 96.5V110.5L214.25 114V143L203.25 153.5Z" fill="#006400"/>
<path d="M205.25 241.5L214.75 238.5H221.25H230.75L234.25 241.5V252.5L224.25 261H205.25L199.75 252.5V243.5L205.25 241.5Z" fill="black" fill-opacity="0.1"/>
<path d="M221.25 238.5H216.75V225.5L221.25 223.5V238.5Z" fill="#A52A2A"/>
<path d="M227.25 223.5H222.75H214.25L205.75 213V201L210.75 196L205.75 192.5V184L210.75 176.5V166.5L220.75 146.5H227.25V150.5L233.75 159.5L235.75 166.5V180.5L238.25 184V213L227.25 223.5Z" fill="#006400"/>
<path d="M254.25 174.5L263.75 171.5H270.25H279.75L283.25 174.5V185.5L273.25 194H254.25L248.75 185.5V176.5L254.25 174.5Z" fill="black" fill-opacity="0.1"/>
<path d="M270.25 171.5H265.75V158.5L270.25 156.5V171.5Z" fill="#A52A2A"/>
<path d="M276.25 156.5H271.75H263.25L254.75 146V134L259.75 129L254.75 125.5V117L259.75 109.5V99.5L269.75 79.5H276.25V83.5L282.75 92.5L284.75 99.5V113.5L287.25 117V146L276.25 156.5Z" fill="#006400"/>
<path d="M262.25 255.5L271.75 252.5H278.25H287.75L291.25 255.5V266.5L281.25 275H262.25L256.75 266.5V257.5L262.25 255.5Z" fill="black" fill-opacity="0.1"/>
<path d="M278.25 252.5H273.75V239.5L278.25 237.5V252.5Z" fill="#A52A2A"/>
<path d="M284.25 237.5H279.75H271.25L262.75 227V215L267.75 210L262.75 206.5V198L267.75 190.5V180.5L277.75 160.5H284.25V164.5L290.75 173.5L292.75 180.5V194.5L295.25 198V227L284.25 237.5Z" fill="#006400"/>
<path d="M270.25 319.5L279.75 316.5H286.25H295.75L299.25 319.5V330.5L289.25 339H270.25L264.75 330.5V321.5L270.25 319.5Z" fill="black" fill-opacity="0.1"/>
<path d="M286.25 316.5H281.75V303.5L286.25 301.5V316.5Z" fill="#A52A2A"/>
<path d="M292.25 301.5H287.75H279.25L270.75 291V279L275.75 274L270.75 270.5V262L275.75 254.5V244.5L285.75 224.5H292.25V228.5L298.75 237.5L300.75 244.5V258.5L303.25 262V291L292.25 301.5Z" fill="#006400"/>
<path d="M63.25 223.5L72.75 220.5H79.25H88.75L92.25 223.5V234.5L82.25 243H63.25L57.75 234.5V225.5L63.25 223.5Z" fill="black" fill-opacity="0.1"/>
<path d="M79.25 220.5H74.75V207.5L79.25 205.5V220.5Z" fill="#A52A2A"/>
<path d="M85.25 205.5H80.75H72.25L63.75 195V183L68.75 178L63.75 174.5V166L68.75 158.5V148.5L78.75 128.5H85.25V132.5L91.75 141.5L93.75 148.5V162.5L96.25 166V195L85.25 205.5Z" fill="#006400"/>
<path d="M18.25 230.5L27.75 227.5H34.25H43.75L47.25 230.5V241.5L37.25 250H18.25L12.75 241.5V232.5L18.25 230.5Z" fill="black" fill-opacity="0.1"/>
<path d="M34.25 227.5H29.75V214.5L34.25 212.5V227.5Z" fill="#A52A2A"/>
<path d="M40.25 212.5H35.75H27.25L18.75 202V190L23.75 185L18.75 181.5V173L23.75 165.5V155.5L33.75 135.5H40.25V139.5L46.75 148.5L48.75 155.5V169.5L51.25 173V202L40.25 212.5Z" fill="#006400"/>
<path d="M6.25 314.5L15.75 311.5H22.25H31.75L35.25 314.5V325.5L25.25 334H6.25L0.75 325.5V316.5L6.25 314.5Z" fill="black" fill-opacity="0.1"/>
<path d="M22.25 311.5H17.75V298.5L22.25 296.5V311.5Z" fill="#A52A2A"/>
<path d="M28.25 296.5H23.75H15.25L6.75 286V274L11.75 269L6.75 265.5V257L11.75 249.5V239.5L21.75 219.5H28.25V223.5L34.75 232.5L36.75 239.5V253.5L39.25 257V286L28.25 296.5Z" fill="#006400"/>
<path d="M84.25 314.5L93.75 311.5H100.25H109.75L113.25 314.5V325.5L103.25 334H84.25L78.75 325.5V316.5L84.25 314.5Z" fill="black" fill-opacity="0.1"/>
<path d="M100.25 311.5H95.75V298.5L100.25 296.5V311.5Z" fill="#A52A2A"/>
<path d="M106.25 296.5H101.75H93.25L84.75 286V274L89.75 269L84.75 265.5V257L89.75 249.5V239.5L99.75 219.5H106.25V223.5L112.75 232.5L114.75 239.5V253.5L117.25 257V286L106.25 296.5Z" fill="#006400"/>
<path d="M132.25 314.5L141.75 311.5H148.25H157.75L161.25 314.5V325.5L151.25 334H132.25L126.75 325.5V316.5L132.25 314.5Z" fill="black" fill-opacity="0.1"/>
<path d="M148.25 311.5H143.75V298.5L148.25 296.5V311.5Z" fill="#A52A2A"/>
<path d="M154.25 296.5H149.75H141.25L132.75 286V274L137.75 269L132.75 265.5V257L137.75 249.5V239.5L147.75 219.5H154.25V223.5L160.75 232.5L162.75 239.5V253.5L165.25 257V286L154.25 296.5Z" fill="#006400"/>
<path d="M186.25 307.5L195.75 304.5H202.25H211.75L215.25 307.5V318.5L205.25 327H186.25L180.75 318.5V309.5L186.25 307.5Z" fill="black" fill-opacity="0.1"/>
<path d="M202.25 304.5H197.75V291.5L202.25 289.5V304.5Z" fill="#A52A2A"/>
<path d="M208.25 289.5H203.75H195.25L186.75 279V267L191.75 262L186.75 258.5V250L191.75 242.5V232.5L201.75 212.5H208.25V216.5L214.75 225.5L216.75 232.5V246.5L219.25 250V279L208.25 289.5Z" fill="#006400"/>
<path d="M55.25 307.5L64.75 304.5H71.25H80.75L84.25 307.5V318.5L74.25 327H55.25L49.75 318.5V309.5L55.25 307.5Z" fill="black" fill-opacity="0.1"/>
<path d="M71.25 304.5H66.75V291.5L71.25 289.5V304.5Z" fill="#A52A2A"/>
<path d="M77.25 289.5H72.75H64.25L55.75 279V267L60.75 262L55.75 258.5V250L60.75 242.5V232.5L70.75 212.5H77.25V216.5L83.75 225.5L85.75 232.5V246.5L88.25 250V279L77.25 289.5Z" fill="#006400"/>
<path d="M11.25 130.5L20.75 127.5H27.25H36.75L40.25 130.5V141.5L30.25 150H11.25L5.75 141.5V132.5L11.25 130.5Z" fill="black" fill-opacity="0.1"/>
<path d="M27.25 127.5H22.75V114.5L27.25 112.5V127.5Z" fill="#A52A2A"/>
<path d="M33.25 112.5H28.75H20.25L11.75 102V90L16.75 85L11.75 81.5V73L16.75 65.5V55.5L26.75 35.5H33.25V39.5L39.75 48.5L41.75 55.5V69.5L44.25 73V102L33.25 112.5Z" fill="#006400"/>
<path d="M68.25 130.5L77.75 127.5H84.25H93.75L97.25 130.5V141.5L87.25 150H68.25L62.75 141.5V132.5L68.25 130.5Z" fill="black" fill-opacity="0.1"/>
<path d="M84.25 127.5H79.75V114.5L84.25 112.5V127.5Z" fill="#A52A2A"/>
<path d="M90.25 112.5H85.75H77.25L68.75 102V90L73.75 85L68.75 81.5V73L73.75 65.5V55.5L83.75 35.5H90.25V39.5L96.75 48.5L98.75 55.5V69.5L101.25 73V102L90.25 112.5Z" fill="#006400"/>
<path d="M129.25 130.5L138.75 127.5H145.25H154.75L158.25 130.5V141.5L148.25 150H129.25L123.75 141.5V132.5L129.25 130.5Z" fill="black" fill-opacity="0.1"/>
<path d="M145.25 127.5H140.75V114.5L145.25 112.5V127.5Z" fill="#A52A2A"/>
<path d="M151.25 112.5H146.75H138.25L129.75 102V90L134.75 85L129.75 81.5V73L134.75 65.5V55.5L144.75 35.5H151.25V39.5L157.75 48.5L159.75 55.5V69.5L162.25 73V102L151.25 112.5Z" fill="#006400"/>
<path d="M132.25 195.5L141.75 192.5H148.25H157.75L161.25 195.5V206.5L151.25 215H132.25L126.75 206.5V197.5L132.25 195.5Z" fill="black" fill-opacity="0.1"/>
<path d="M148.25 192.5H143.75V179.5L148.25 177.5V192.5Z" fill="#A52A2A"/>
<path d="M154.25 177.5H149.75H141.25L132.75 167V155L137.75 150L132.75 146.5V138L137.75 130.5V120.5L147.75 100.5H154.25V104.5L160.75 113.5L162.75 120.5V134.5L165.25 138V167L154.25 177.5Z" fill="#006400"/>
<path d="M128.25 237.5L137.75 234.5H144.25H153.75L157.25 237.5V248.5L147.25 257H128.25L122.75 248.5V239.5L128.25 237.5Z" fill="black" fill-opacity="0.1"/>
<path d="M144.25 234.5H139.75V221.5L144.25 219.5V234.5Z" fill="#A52A2A"/>
<path d="M150.25 219.5H145.75H137.25L128.75 209V197L133.75 192L128.75 188.5V180L133.75 172.5V162.5L143.75 142.5H150.25V146.5L156.75 155.5L158.75 162.5V176.5L161.25 180V209L150.25 219.5Z" fill="#006400"/>
</svg>
