<svg width="1440" height="788" viewBox="0 0 1440 788" fill="none" xmlns="http://www.w3.org/2000/svg">
<path d="M1384.7 513.969C1517.77 600.321 1368.83 788.004 1368.83 788.004L1157.25 788.016C1157.25 788.016 1201.35 621.041 1160.58 516.989C1159.32 513.755 1157.94 511.99 1157.24 508.719C1156.42 504.922 1155.45 502.666 1157.24 498.945C1160.51 492.142 1175.81 491.374 1179.82 484.66C1182.85 479.575 1181.45 476.354 1179.81 471.127C1178.4 466.601 1163.86 461.093 1173.12 459.85C1175.64 459.513 1177.5 460.431 1179.81 459.85C1184.18 458.752 1175.33 454.822 1179.81 453.836C1181.89 453.379 1185.67 453.835 1185.67 453.835C1200.21 452.893 1197.99 444.214 1199.88 437.295C1200.84 433.801 1199.88 428.273 1199.88 428.273L1208.24 428.272C1219.96 427.003 1218.09 420.385 1219.95 414.739C1221.2 410.969 1222.43 408.596 1219.95 404.966C1218.18 402.366 1212.63 401.683 1212.42 398.952C1212.26 396.756 1212.17 394.308 1216.61 393.689C1219.96 393.221 1224.97 395.192 1224.97 395.192C1233.03 394.901 1235.33 386.343 1227.48 385.418C1225.57 385.194 1224.34 385.677 1222.46 385.419C1215.93 384.524 1220 380.16 1222.46 377.149C1223.78 375.527 1225.02 376.401 1227.48 373.389C1229.93 370.378 1234 366.014 1227.48 365.119C1225.59 364.861 1222.46 365.12 1222.46 365.12C1218.52 365.968 1224.47 368.564 1222.46 370.382C1220.33 372.303 1216.97 372.765 1212.61 373.364L1212.42 373.39C1197 375.512 1196.6 352.556 1212.42 353.843C1219.61 354.428 1220.23 358.678 1227.47 359.105C1242.18 359.972 1212.88 342.286 1227.47 341.062C1230.05 340.846 1231.85 341.642 1234.16 341.061C1239.1 339.819 1229.6 337.504 1227.47 335.047C1219.01 325.274 1236.72 317.593 1227.47 307.982C1225.08 305.497 1221.6 304.586 1219.95 301.968C1217.99 298.874 1224.96 295.876 1219.95 293.698C1215.36 291.708 1210.18 294.174 1204.06 293.699C1171.33 291.162 1180.53 271.474 1173.11 256.11C1171.14 252.033 1173.19 249.246 1168.93 245.585C1165.67 242.784 1160.06 242.473 1157.22 239.571C1153.32 235.578 1165.53 230.243 1157.22 228.294C1153.12 227.332 1148.07 230.096 1145.51 228.295C1143.79 227.078 1147.09 225.8 1145.51 224.536C1142.86 222.397 1136.71 225.735 1132.13 224.537C1126.26 222.999 1131.38 218.497 1125.44 217.019C1121.1 215.938 1116.99 218.304 1112.9 217.019C1106.72 215.077 1118.58 210.259 1112.9 207.998C1108.14 206.104 1102.14 206.341 1097.01 207.999C1090.73 210.026 1100.14 216.059 1092.83 217.021C1090.63 217.31 1086.98 217.021 1086.98 217.021C1082.87 216.337 1085.45 212.753 1081.12 212.51C1076.43 212.246 1078.14 216.393 1073.6 217.022C1067.45 217.873 1066.28 213.488 1060.22 212.512C1053.41 211.416 1048.67 213.539 1041.82 212.513C1035.45 211.559 1034.09 208.749 1027.6 208.002C1023.16 207.491 1020.15 208.802 1015.89 208.003C1009.09 206.725 1012.42 202.021 1005.86 200.486C1000.29 199.182 994.347 198.395 989.97 200.486C985.615 202.568 991.253 205.132 989.971 208.005C985.174 218.748 960.225 219.495 937.288 220.788C929.504 221.227 922.351 223.605 917.218 220.789C912.769 218.349 922.353 214.633 917.217 212.519C912.772 210.691 905.299 210.155 902.165 212.52C900.189 214.011 903.306 215.355 902.165 217.031C899.191 221.397 888.349 220.314 878.75 220.791C874.203 221.018 870.933 219.65 867.042 220.792C860.737 222.642 872.601 227.484 867.043 229.814C862.143 231.868 850.318 223.649 850.318 229.815L850.319 245.603C850.319 251.768 850.052 254.152 842.793 257.632C835.778 260.995 828.048 262.808 818.542 261.393C805.421 259.439 819.511 248.135 806.834 245.605C800.209 244.283 793.372 243.123 788.436 245.606C783.77 247.953 792.989 251.479 788.437 253.876C782.026 257.251 774.441 247.36 765.858 249.367C756.819 251.48 770.581 262.614 760.841 261.396C753.932 260.532 757.816 252.17 751.642 253.878C746.304 255.355 752.777 258.51 751.642 261.396C750 265.571 748.176 268.291 741.607 271.17C729.36 276.538 706.646 264.147 698.959 271.173C696.354 273.553 699.822 275.788 696.45 277.939C692.64 280.37 685.89 278.795 681.398 280.947C675.935 283.564 681.817 287.801 675.545 289.969C672.221 291.118 655.474 282.977 665.51 291.473C675.545 299.969 660.039 318.719 657.984 311.021C657.129 307.817 664.772 302.638 657.984 302.751C653.493 302.826 653.628 305.542 649.622 306.51C639.907 308.858 630.333 306.524 622.861 302.753C619.876 301.246 617.007 298.242 617.007 298.242C605.464 293.195 611.33 311.819 596.938 314.783C587.348 316.758 579.765 312.806 570.178 314.785C548.087 319.344 576.698 333.082 570.18 344.105C566.703 349.984 568.527 355.899 556.8 358.39C549.644 359.91 540.515 355.128 536.73 358.391C534.643 360.191 539.116 361.94 536.731 363.654C533.126 366.244 525.753 362.18 520.006 363.655C514.183 365.15 510.807 367.275 510.807 370.422C510.807 373.568 517.954 374.196 520.006 377.188C522.496 380.816 512.68 385.402 520.007 386.961C523.286 387.659 529.206 386.961 529.206 386.961C537.875 388.323 539.163 393.3 536.733 397.485C535.341 399.881 531.747 400.576 529.207 402.749C517.463 412.789 522.444 420.611 524.191 432.069C525.836 442.864 532.163 448.532 536.736 459.134C538.76 463.825 532.262 469.562 541.754 471.162C545.448 471.785 551.789 471.162 551.789 471.162C565.374 473.025 554.833 485.147 541.755 487.702C535.412 488.942 530.189 486.12 524.194 487.703C513.398 490.555 533.745 499.016 524.195 502.739C516.366 505.792 507.892 501.242 498.271 502.741C477.395 505.993 484.911 518.093 470.676 526.048C412.004 558.838 286.875 558.097 239.034 521.55C234.973 518.449 237.513 513.415 229.834 513.281C221.998 513.144 227.539 520.95 219.8 521.551C211.142 522.224 209.214 517.079 205.583 513.282C199.705 507.135 205.582 495.991 205.582 495.991L196.383 492.232C192.168 488.258 205.581 481.706 205.581 481.706L196.383 481.707C181.98 480.048 210.867 462.174 196.382 463.663C188.048 464.52 181.329 471.182 181.329 471.182L181.329 463.664C179.977 456.599 182.039 450.304 169.62 446.373C151.832 440.743 142.711 456.736 121.955 459.157C50.4676 467.494 33.7493 419.73 12.4017 386.237C-8.3777 353.636 -0.210262 332.146 16.5781 299.027C44.8352 243.284 187.679 235.288 191.348 177.976C191.555 174.748 185.465 171.321 191.348 169.707C194.742 168.775 197.689 170.329 201.383 169.706C209.144 168.397 202.544 161.536 210.581 160.684C219.813 159.705 216.177 169.638 225.634 169.705C237.313 169.786 232.214 161.584 234.832 156.172C237.487 150.683 238.087 147.502 239.013 141.887C240.219 134.569 224.298 125.313 239.012 123.092C243.681 122.387 247.582 124.454 251.555 123.091C257.064 121.202 248.66 117.743 251.555 114.821C253.754 112.601 255.593 110.31 260.753 110.31C265.914 110.31 265.333 113.726 269.952 114.82C283.846 118.111 273.955 99.7059 289.185 98.2793C293.03 97.9191 295.584 98.9732 299.22 98.2787C306.088 96.9671 300.907 92.1708 306.746 90.0085C314.218 87.2413 325.478 86.3481 330.997 90.0071C334.956 92.6313 324.56 97.2471 330.998 98.2769C333.164 98.6236 336.852 98.2766 336.852 98.2766C343.551 97.3348 337.685 92.9221 341.032 90.0066C353.514 79.1353 383.585 91.524 405.424 98.2728C439.522 108.81 439.944 123.869 454.766 141.875C462.099 150.785 452.905 169.687 470.656 165.18C475.413 163.972 478.749 163.061 480.691 160.669C483.482 157.229 471.671 155.013 474.836 151.647C479.615 146.566 491.916 157.513 503.269 156.157C517.132 154.501 511.056 144.57 524.175 141.871C534.066 139.836 541.97 144.001 551.771 141.87C561.994 139.647 564.569 135.978 570.168 131.343C577.257 125.475 567.683 117.142 581.038 114.803C586.861 113.783 592.018 116.607 596.927 114.802C603.278 112.467 595.621 108.795 596.927 105.029C599.151 98.6118 601.953 94.4156 611.978 89.9915C621.992 85.5728 631.001 84.6349 644.592 83.9753C649.79 83.723 652.882 84.5377 657.972 83.9746C664.159 83.29 665.989 80.875 672.188 80.2147C682.822 79.0821 688.25 84.9575 698.948 83.9723C716.044 82.3979 709.135 71.3131 722.362 65.9276C738.821 59.2266 760.75 65.3969 775.046 57.6548C786.185 51.6218 775.872 43.4761 788.425 38.107C797.058 34.4144 808.086 36.874 816.021 32.8428C824.003 28.7877 813.816 20.5152 825.219 19.3097C828.088 19.0063 832.745 19.3093 832.745 19.3093C840.192 20.0952 842.444 22.8983 846.125 26.0748C853.277 32.2461 831.966 42.0417 846.126 44.1183C850.495 44.759 853.311 44.4352 857.834 44.1176C872.896 43.0603 875.378 36.2786 888.775 32.8388C905.594 28.5202 925.14 33.6759 935.604 26.0699C942.759 20.8692 930.988 14.878 939.785 10.2817C946.222 6.91803 953.502 7.48129 962.363 5.76955C970.168 4.26186 974.901 0.21582 982.433 2.00935C989.458 3.68218 983.991 8.20256 989.124 11.0308C1002.41 18.3524 1025.74 -5.84028 1037.63 2.00629C1041.76 4.73348 1035.99 9.14286 1042.64 10.276C1050.53 11.6183 1046.86 1.60514 1055.19 2.00532C1063.38 2.39891 1056.25 10.4345 1064.39 11.0266C1067.67 11.2656 1069.51 9.91254 1072.75 10.2743C1080.07 11.0933 1071.84 16.3437 1076.09 19.2958C1084.92 25.4289 1078.09 -0.479838 1092.82 2.00323C1101.36 3.44349 1098.16 9.03205 1106.2 11.0243C1114.31 13.0336 1122.87 8.0886 1129.61 11.023C1134.83 13.2916 1127.98 18.1594 1134.63 19.2925C1137.4 19.7636 1139.29 18.9957 1142.16 19.2921C1153.68 20.4808 1142.22 29.8373 1152.19 32.8242C1160.76 35.3901 1170.37 29.7223 1178.12 32.8228C1181.98 34.3695 1180.52 36.8173 1184.81 38.085C1189.8 39.5605 1195.32 39.858 1199.86 38.0842C1203.43 36.6899 1199.81 33.7078 1204.04 32.8213C1209.59 31.6589 1211.34 35.7561 1214.91 38.0833C1221.52 42.3873 1217.36 46.9422 1224.95 50.8635C1230.62 53.798 1237.72 53.1695 1243.35 56.1252C1254.23 61.8416 1233.86 73.1813 1249.2 75.6719C1254.76 76.5747 1259.29 74.1736 1264.25 75.671C1272.07 78.0305 1263.16 82.5752 1264.25 86.9481C1266.1 94.3173 1262.15 102.437 1276.8 104.991C1283.24 106.113 1288.52 103.278 1294.36 104.99C1303.82 107.765 1291.47 113.42 1294.36 118.522C1297.58 124.199 1308.18 125.589 1311.09 131.302C1313.27 135.583 1303.14 140.316 1311.09 142.579C1315.85 143.936 1321.01 140.908 1325.3 142.579C1330.56 144.622 1320.41 148.61 1325.3 150.849C1330.01 153.001 1337.32 148.695 1342.03 150.848C1346.93 153.086 1341.8 155.89 1342.03 159.117C1343.67 182.308 1327.62 214.792 1376.32 216.253C1379.58 216.351 1382.08 215.317 1384.68 216.253C1389 217.805 1378.58 219.174 1376.32 221.516C1371.94 226.052 1386.43 232.95 1376.32 234.296C1373.49 234.673 1371.23 233.511 1368.79 234.297C1365.22 235.453 1365.22 238.404 1368.79 239.56C1371.23 240.345 1376.32 239.559 1376.32 239.559C1381.95 240.429 1382.66 242.927 1384.68 245.573C1387.63 249.437 1376.7 254.522 1384.68 256.098C1388 256.754 1391.13 255.002 1393.88 256.098C1397.96 257.719 1388.87 259.586 1388.87 262.113C1388.87 264.64 1393.88 268.127 1393.88 268.127L1388.87 268.127C1379.81 269.039 1386.96 275.095 1388.87 279.404C1390.08 282.146 1392.86 283.412 1393.89 286.17C1396.19 292.363 1374.23 300.717 1387.2 301.959C1389.76 302.204 1393.89 301.958 1393.89 301.958C1401.52 303.139 1394.45 307.924 1393.89 311.732C1392.92 318.293 1379.12 322.932 1387.2 328.272C1389.3 329.66 1391.95 329.839 1393.89 331.279C1398.22 334.493 1386.09 340.148 1393.89 341.052C1395.79 341.273 1398.91 341.052 1398.91 341.052C1409.22 341.967 1400.05 348.871 1398.91 353.833C1397.87 358.307 1395.54 360.678 1393.89 365.11C1390.96 372.97 1372.54 383.56 1388.87 385.409C1392.69 385.841 1395.86 384.24 1398.91 385.409C1403.5 387.166 1395.74 389.515 1393.89 392.175C1374.39 420.223 1326.6 449.653 1376.33 467.357C1380.97 469.007 1384.52 469.301 1388.88 471.115C1412.39 480.912 1376.34 508.707 1376.34 508.707L1384.7 513.969Z" fill="#F9B898"/>
</svg>
