<svg width="488" height="407" viewBox="0 0 488 407" fill="none" xmlns="http://www.w3.org/2000/svg">
<path d="M197.5 84L207 81H213.5H223L226.5 84V95L216.5 103.5H197.5L192 95V86L197.5 84Z" fill="black" fill-opacity="0.1"/>
<path d="M213.5 81H209V68L213.5 66V81Z" fill="#A52A2A"/>
<path d="M219.5 66H215H206.5L198 55.5V43.5L203 38.5L198 35V26.5L203 19V9L213 -11H219.5V-7L226 2L228 9V23L230.5 26.5V55.5L219.5 66Z" fill="#006400"/>
<path d="M136.5 84L146 81H152.5H162L165.5 84V95L155.5 103.5H136.5L131 95V86L136.5 84Z" fill="black" fill-opacity="0.1"/>
<path d="M152.5 81H148V68L152.5 66V81Z" fill="#A52A2A"/>
<path d="M158.5 66H154H145.5L137 55.5V43.5L142 38.5L137 35V26.5L142 19V9L152 -11H158.5V-7L165 2L167 9V23L169.5 26.5V55.5L158.5 66Z" fill="#006400"/>
<path d="M448.5 198L458 195H464.5H474L477.5 198V209L467.5 217.5H448.5L443 209V200L448.5 198Z" fill="black" fill-opacity="0.1"/>
<path d="M464.5 195H460V182L464.5 180V195Z" fill="#A52A2A"/>
<path d="M470.5 180H466H457.5L449 169.5V157.5L454 152.5L449 149V140.5L454 133V123L464 103H470.5V107L477 116L479 123V137L481.5 140.5V169.5L470.5 180Z" fill="#006400"/>
<path d="M378.5 161L388 158H394.5H404L407.5 161V172L397.5 180.5H378.5L373 172V163L378.5 161Z" fill="black" fill-opacity="0.1"/>
<path d="M394.5 158H390V145L394.5 143V158Z" fill="#A52A2A"/>
<path d="M400.5 143H396H387.5L379 132.5V120.5L384 115.5L379 112V103.5L384 96V86L394 66H400.5V70L407 79L409 86V100L411.5 103.5V132.5L400.5 143Z" fill="#006400"/>
<path d="M308.5 188L318 185H324.5H334L337.5 188V199L327.5 207.5H308.5L303 199V190L308.5 188Z" fill="black" fill-opacity="0.1"/>
<path d="M324.5 185H320V172L324.5 170V185Z" fill="#A52A2A"/>
<path d="M330.5 170H326H317.5L309 159.5V147.5L314 142.5L309 139V130.5L314 123V113L324 93H330.5V97L337 106L339 113V127L341.5 130.5V159.5L330.5 170Z" fill="#006400"/>
<path d="M374.5 233L384 230H390.5H400L403.5 233V244L393.5 252.5H374.5L369 244V235L374.5 233Z" fill="black" fill-opacity="0.1"/>
<path d="M390.5 230H386V217L390.5 215V230Z" fill="#A52A2A"/>
<path d="M396.5 215H392H383.5L375 204.5V192.5L380 187.5L375 184V175.5L380 168V158L390 138H396.5V142L403 151L405 158V172L407.5 175.5V204.5L396.5 215Z" fill="#006400"/>
<path d="M454.5 310L464 307H470.5H480L483.5 310V321L473.5 329.5H454.5L449 321V312L454.5 310Z" fill="black" fill-opacity="0.1"/>
<path d="M470.5 307H466V294L470.5 292V307Z" fill="#A52A2A"/>
<path d="M476.5 292H472H463.5L455 281.5V269.5L460 264.5L455 261V252.5L460 245V235L470 215H476.5V219L483 228L485 235V249L487.5 252.5V281.5L476.5 292Z" fill="#006400"/>
<path d="M452.5 387L462 384H468.5H478L481.5 387V398L471.5 406.5H452.5L447 398V389L452.5 387Z" fill="black" fill-opacity="0.1"/>
<path d="M468.5 384H464V371L468.5 369V384Z" fill="#A52A2A"/>
<path d="M474.5 369H470H461.5L453 358.5V346.5L458 341.5L453 338V329.5L458 322V312L468 292H474.5V296L481 305L483 312V326L485.5 329.5V358.5L474.5 369Z" fill="#006400"/>
<path d="M369.5 336L379 333H385.5H395L398.5 336V347L388.5 355.5H369.5L364 347V338L369.5 336Z" fill="black" fill-opacity="0.1"/>
<path d="M385.5 333H381V320L385.5 318V333Z" fill="#A52A2A"/>
<path d="M391.5 318H387H378.5L370 307.5V295.5L375 290.5L370 287V278.5L375 271V261L385 241H391.5V245L398 254L400 261V275L402.5 278.5V307.5L391.5 318Z" fill="#006400"/>
<path d="M299.5 265L309 262H315.5H325L328.5 265V276L318.5 284.5H299.5L294 276V267L299.5 265Z" fill="black" fill-opacity="0.1"/>
<path d="M315.5 262H311V249L315.5 247V262Z" fill="#A52A2A"/>
<path d="M321.5 247H317H308.5L300 236.5V224.5L305 219.5L300 216V207.5L305 200V190L315 170H321.5V174L328 183L330 190V204L332.5 207.5V236.5L321.5 247Z" fill="#006400"/>
<path d="M244.5 250L254 247H260.5H270L273.5 250V261L263.5 269.5H244.5L239 261V252L244.5 250Z" fill="black" fill-opacity="0.1"/>
<path d="M260.5 247H256V234L260.5 232V247Z" fill="#A52A2A"/>
<path d="M266.5 232H262H253.5L245 221.5V209.5L250 204.5L245 201V192.5L250 185V175L260 155H266.5V159L273 168L275 175V189L277.5 192.5V221.5L266.5 232Z" fill="#006400"/>
<path d="M62.5 103L72 100H78.5H88L91.5 103V114L81.5 122.5H62.5L57 114V105L62.5 103Z" fill="black" fill-opacity="0.1"/>
<path d="M78.5 100H74V87L78.5 85V100Z" fill="#A52A2A"/>
<path d="M84.5 85H80H71.5L63 74.5V62.5L68 57.5L63 54V45.5L68 38V28L78 8H84.5V12L91 21L93 28V42L95.5 45.5V74.5L84.5 85Z" fill="#006400"/>
<path d="M184.5 217L194 214H200.5H210L213.5 217V228L203.5 236.5H184.5L179 228V219L184.5 217Z" fill="black" fill-opacity="0.1"/>
<path d="M200.5 214H196V201L200.5 199V214Z" fill="#A52A2A"/>
<path d="M206.5 199H202H193.5L185 188.5V176.5L190 171.5L185 168V159.5L190 152V142L200 122H206.5V126L213 135L215 142V156L217.5 159.5V188.5L206.5 199Z" fill="#006400"/>
<path d="M97.5 172L107 169H113.5H123L126.5 172V183L116.5 191.5H97.5L92 183V174L97.5 172Z" fill="black" fill-opacity="0.1"/>
<path d="M113.5 169H109V156L113.5 154V169Z" fill="#A52A2A"/>
<path d="M119.5 154H115H106.5L98 143.5V131.5L103 126.5L98 123V114.5L103 107V97L113 77H119.5V81L126 90L128 97V111L130.5 114.5V143.5L119.5 154Z" fill="#006400"/>
<path d="M141.5 218L151 215H157.5H167L170.5 218V229L160.5 237.5H141.5L136 229V220L141.5 218Z" fill="black" fill-opacity="0.1"/>
<path d="M157.5 215H153V202L157.5 200V215Z" fill="#A52A2A"/>
<path d="M163.5 200H159H150.5L142 189.5V177.5L147 172.5L142 169V160.5L147 153V143L157 123H163.5V127L170 136L172 143V157L174.5 160.5V189.5L163.5 200Z" fill="#006400"/>
<path d="M5.5 103L15 100H21.5H31L34.5 103V114L24.5 122.5H5.5L0 114V105L5.5 103Z" fill="black" fill-opacity="0.1"/>
<path d="M21.5 100H17V87L21.5 85V100Z" fill="#A52A2A"/>
<path d="M27.5 85H23H14.5L6 74.5V62.5L11 57.5L6 54V45.5L11 38V28L21 8H27.5V12L34 21L36 28V42L38.5 45.5V74.5L27.5 85Z" fill="#006400"/>
<path d="M228.5 166L238 163H244.5H254L257.5 166V177L247.5 185.5H228.5L223 177V168L228.5 166Z" fill="black" fill-opacity="0.1"/>
<path d="M244.5 163H240V150L244.5 148V163Z" fill="#A52A2A"/>
<path d="M250.5 148H246H237.5L229 137.5V125.5L234 120.5L229 117V108.5L234 101V91L244 71H250.5V75L257 84L259 91V105L261.5 108.5V137.5L250.5 148Z" fill="#006400"/>
<path d="M452.5 95L462 92H468.5H478L481.5 95V106L471.5 114.5H452.5L447 106V97L452.5 95Z" fill="black" fill-opacity="0.1"/>
<path d="M468.5 92H464V79L468.5 77V92Z" fill="#A52A2A"/>
<path d="M474.5 77H470H461.5L453 66.5V54.5L458 49.5L453 46V37.5L458 30V20L468 0H474.5V4L481 13L483 20V34L485.5 37.5V66.5L474.5 77Z" fill="#006400"/>
<path d="M391.5 95L401 92H407.5H417L420.5 95V106L410.5 114.5H391.5L386 106V97L391.5 95Z" fill="black" fill-opacity="0.1"/>
<path d="M407.5 92H403V79L407.5 77V92Z" fill="#A52A2A"/>
<path d="M413.5 77H409H400.5L392 66.5V54.5L397 49.5L392 46V37.5L397 30V20L407 0H413.5V4L420 13L422 20V34L424.5 37.5V66.5L413.5 77Z" fill="#006400"/>
<path d="M294.5 95L304 92H310.5H320L323.5 95V106L313.5 114.5H294.5L289 106V97L294.5 95Z" fill="black" fill-opacity="0.1"/>
<path d="M310.5 92H306V79L310.5 77V92Z" fill="#A52A2A"/>
<path d="M316.5 77H312H303.5L295 66.5V54.5L300 49.5L295 46V37.5L300 30V20L310 0H316.5V4L323 13L325 20V34L327.5 37.5V66.5L316.5 77Z" fill="#006400"/>
</svg>
